<svg xmlns="http://www.w3.org/2000/svg" viewBox="-283 406.9 29 29"><path d="M-256.3 418.7c-2.9 3.9-3.2 3.5-.8 5.8 2.3 2.2 2.8 3.2 2.9 3.3 0 0 1 1.7-1.1 1.7l-3.9.1c-.8.2-1.9-.6-1.9-.6-1.4-1-2.8-3.6-3.9-3.2 0 0-1.1.3-1.1 2.7 0 .5-.2.8-.2.8s-.3.3-.8.3h-1.7c-3.8.2-7.2-3.3-7.2-3.3s-3.7-3.8-6.9-11.4c-.2-.5 0-.7 0-.7s.2-.3.9-.3h4.1c.4.1.7.3.7.3s.2.2.4.5c.7 1.7 1.5 3.2 1.5 3.2 1.5 3.1 2.5 3.6 3.1 3.3 0 0 .8-.5.6-4.2-.1-1.4-.4-2-.4-2-.3-.5-1-.6-1.3-.6-.2 0 .2-.6.6-.8.7-.4 2-.4 3.6-.4 1.2 0 1.6.1 2 .2 1.4.3.9 1.7.9 4.9 0 1-.2 2.5.5 2.9.3.2 1.1 0 3-3.2 0 0 .9-1.6 1.6-3.4.1-.3.4-.5.4-.5s.2-.1.6-.1h4.3c1.3-.2 1.5.4 1.5.4.4.5-.3 1.9-2 4.3z" fill="#fff"/></svg>