<?xml version="1.0" standalone="no"?>
<!DOCTYPE svg PUBLIC "-//W3C//DTD SVG 1.1//EN" "http://www.w3.org/Graphics/SVG/1.1/DTD/svg11.dtd" >
<svg>
<metadata>
Created by FontForge 20090914 at Thu Mar 14 00:04:50 2019
 By www-data
Copyrighted (c) 1981, 1997 by and the property of Linotype-Hell AG and/or its subsidiaries. All Rights Reserved. All Cyrillic characters designed by DoubleAlex. Helvetica is a registered Trademark of Linotype-Hell AG and/or its subsidiaries.
</metadata>
<defs>
<font id="HelveticaNeueCyr-Medium" horiz-adv-x="556" >
  <font-face 
    font-family="HelveticaNeueCyr"
    font-weight="550"
    font-stretch="normal"
    units-per-em="1000"
    panose-1="2 0 6 3 5 0 0 2 0 4"
    ascent="800"
    descent="-200"
    x-height="516"
    cap-height="712"
    bbox="-36 -214 1075 900"
    underline-thickness="50"
    underline-position="-50"
    unicode-range="U+0020-U+E001"
  />
<missing-glyph horiz-adv-x="1000" 
 />
    <glyph glyph-name=".notdef" horiz-adv-x="1000" 
 />
    <glyph glyph-name="space" unicode=" " horiz-adv-x="278" 
 />
    <glyph glyph-name="exclam" unicode="!" horiz-adv-x="278" 
d="M200 712v-204l-32 -311h-59l-31 310v205h122zM204 127v-127h-130v127h130z" />
    <glyph glyph-name="quotedbl" unicode="&#x22;" horiz-adv-x="444" 
d="M168 405h-65l-18 291h101zM342 405h-66l-17 291h100z" />
    <glyph glyph-name="numbersign" unicode="#" 
d="M163 0h-94l36 195h-90v80h104l27 145h-89v80h104l37 196h94l-36 -196h110l36 196h94l-36 -196h89v-80h-104l-27 -145h89v-80h-104l-36 -195h-94l36 195h-110zM324 275l27 145h-110l-27 -145h110z" />
    <glyph glyph-name="dollar" unicode="$" 
d="M301 788l0.000976562 -72.0029c66.667 -1.33301 119.5 -18.666 158.5 -51.999s58.5 -77.666 58.5 -132.999v-15h-108v7c0 34.667 -9.16699 60.167 -27.5 76.5s-45.5 26.5 -81.5 30.5v-220c158 -26 237 -96.667 237 -212c0 -62.667 -21.833 -113.667 -65.5 -153
s-100.834 -59 -171.501 -59v-86h-50v86c-70 0 -127.167 19.333 -171.5 58s-66.5 93.667 -66.5 165v9h114c-0.666992 -3.33301 -1 -7 -1 -11c0 -82 41.667 -126.667 125 -134v244c-64 9.33301 -116.833 29.833 -158.5 61.5s-62.5 76.834 -62.5 135.501
c0 62.667 20.5 110.5 61.5 143.5s94.167 52.5 159.5 58.5v72h50zM251.001 420.997v208.001c-35.333 -2.66699 -63 -13.167 -83 -31.5s-30 -42.5 -30 -72.5c0 -31.333 9.83301 -54.333 29.5 -69s47.5 -26.334 83.5 -35.001zM301.001 305.998v-234
c37.333 1.33301 67.333 13 90 35s34 50.333 34 85c0 59.333 -41.333 97.333 -124 114z" />
    <glyph glyph-name="percent" unicode="%" horiz-adv-x="1000" 
d="M731 725l-394 -756h-78l396 756h76zM253 708c52.667 0 92.667 -16.167 120 -48.5s41 -79.5 41 -141.5c0 -66.667 -13.833 -117.334 -41.5 -152.001s-68.167 -52 -121.5 -52s-94 16.833 -122 50.5s-42 82.834 -42 147.501c0 62.667 14.5 111 43.5 145s69.833 51 122.5 51z
M251 643c-50.667 0 -76 -45.333 -76 -136c0 -86 25 -129 75 -129c50.667 0 76 46.333 76 139c0 84 -25 126 -75 126zM757 380c52.667 0 92.667 -16.167 120 -48.5s41 -79.5 41 -141.5c0 -66.667 -13.833 -117.334 -41.5 -152.001s-68.167 -52 -121.5 -52
s-94 16.833 -122 50.5s-42 82.834 -42 147.501c0 62.667 14.5 111 43.5 145s69.833 51 122.5 51zM755 315c-50.667 0 -76 -45.333 -76 -136c0 -86 25 -129 75 -129c50.667 0 76 46.333 76 139c0 84 -25 126 -75 126z" />
    <glyph glyph-name="ampersand" unicode="&#x26;" horiz-adv-x="648" 
d="M580 340c-6 -70.667 -25.333 -128.998 -58 -174.998l140 -165h-140l-66 80c-53.333 -63.333 -120 -95 -200 -95c-63.333 0 -116.333 18.5 -159 55.5s-64 87.167 -64 150.5c0 46.667 15 88.167 45 124.5s69 65.5 117 87.5c-47.333 58 -71 110.333 -71 157
c0 46 16.5 83.833 49.5 113.5s75.167 44.5 126.5 44.5c50 0 91.167 -14.833 123.5 -44.5s48.5 -67.5 48.5 -113.5c0 -76.667 -42 -137.334 -126 -182.001l109 -135c12 25.333 20.333 57.666 25 96.999h100zM289 447.002c55.333 32.667 83.001 69.333 83.001 110
c0 22 -6.83301 40.167 -20.5 54.5s-30.834 21.5 -51.501 21.5c-21.333 0 -39 -6.66699 -53 -20s-21 -30 -21 -50c0 -24.667 19.667 -61.667 59 -111zM254.001 330.001c-34 -19.333 -60.668 -39.168 -80.001 -59.501s-29 -45.833 -29 -76.5
c0 -31.333 11.333 -58.166 34 -80.499s50.334 -33.5 83.001 -33.5c50 0 94.333 25.667 133 77z" />
    <glyph glyph-name="quotesingle" unicode="'" horiz-adv-x="278" 
d="M170 405h-62l-19 291h100z" />
    <glyph glyph-name="parenleft" unicode="(" horiz-adv-x="278" 
d="M285 717c-40.667 -77.333 -70.999 -151.166 -90.999 -221.499s-30 -149.166 -30 -236.499c0 -154 40.667 -304 122 -450h-92c-48.667 79.333 -84.834 152.666 -108.501 219.999s-35.5 143.333 -35.5 228c0 169.333 48 322.666 144 459.999h91z" />
    <glyph glyph-name="parenright" unicode=")" horiz-adv-x="278" 
d="M227 257c0 -84.667 -11.832 -160.667 -35.499 -228s-59.834 -140.666 -108.501 -219.999h-92c81.333 146 122 296 122 450c0 87.333 -10 166.166 -30 236.499s-50.333 144.166 -91 221.499h91c96 -137.333 144 -290.666 144 -459.999z" />
    <glyph glyph-name="asterisk" unicode="*" horiz-adv-x="370" 
d="M352 582l-113 -38l69 -94l-53 -40l-71 99l-69 -99l-55 40l69 94l-111 38l22 64l111 -42l-1 118h69l-2 -118l111 42z" />
    <glyph glyph-name="plus" unicode="+" horiz-adv-x="600" 
d="M249 0v210h-207v95h207v210h102v-210h208v-95h-208v-210h-102z" />
    <glyph glyph-name="comma" unicode="," horiz-adv-x="278" 
d="M207 135v-102c0 -52 -10 -93.833 -30 -125.5s-55.333 -53.167 -106 -64.5v60c41.333 12.667 63 45 65 97h-65v135h136z" />
    <glyph glyph-name="hyphen" unicode="-" horiz-adv-x="389" 
d="M341 328v-106h-293v106h293z" />
    <glyph glyph-name="period" unicode="." horiz-adv-x="278" 
d="M207 135v-135h-136v135h136z" />
    <glyph glyph-name="slash" unicode="/" horiz-adv-x="352" 
d="M370 729l-287 -746h-101l289 746h99z" />
    <glyph glyph-name="zero" unicode="0" 
d="M276 706c162.667 0 244 -120.999 244 -362.999c0 -116.667 -20.333 -205.334 -61 -266.001s-100.334 -91 -179.001 -91c-162.667 0 -244 119.667 -244 359c0 118 20.333 207.667 61 269s100.334 92 179.001 92zM277 610.001c-20 0 -37.335 -3.83203 -52.002 -11.499
s-26.5 -19.334 -35.5 -35.001s-16.167 -31.334 -21.5 -47.001s-9.16602 -35.5 -11.499 -59.5s-3.83301 -43.833 -4.5 -59.5s-1 -35.5 -1 -59.5c0 -90 10.167 -155.333 30.5 -196s52.833 -61 97.5 -61c17.333 0 32.833 3.5 46.5 10.5s24.834 15.5 33.501 25.5
s16 23.333 22 40s10.5 31.834 13.5 45.501s5.33301 30.667 7 51s2.66699 36 3 47s0.5 25.167 0.5 42.5c0 22.667 -0.166992 40.167 -0.5 52.5s-1.5 31 -3.5 56s-5.83301 45.167 -11.5 60.5s-13 31.333 -22 48s-21.167 29.167 -36.5 37.5s-33.333 12.5 -54 12.5z" />
    <glyph glyph-name="one" unicode="1" 
d="M377 704v-704h-122v484h-174v84c121.333 0 189.333 45.333 204 136h92z" />
    <glyph glyph-name="two" unicode="2" 
d="M501 101l0.000976562 -100.999h-478c0.666992 31.333 5 60 13 86s17.167 48.167 27.5 66.5s25.666 37 45.999 56s38.666 34.667 54.999 47s38.833 28.166 67.5 47.499l29.5 19.5c17.667 11.667 28.5 19 32.5 22l27 21c14 11 23.167 19.833 27.5 26.5l18 27
c7.66699 11.333 12.834 22.833 15.501 34.5s4 24.167 4 37.5c0 36.667 -10.167 65.5 -30.5 86.5s-47.833 31.5 -82.5 31.5c-20 0 -37.333 -3.16699 -52 -9.5s-26.167 -14.5 -34.5 -24.5s-15.166 -22.833 -20.499 -38.5s-8.83301 -30.5 -10.5 -44.5
s-2.83398 -30.333 -3.50098 -49h-111v18c0 75.333 21.167 135.166 63.5 179.499s99.5 66.5 171.5 66.5c68 0 122.667 -19.167 164 -57.5s62 -89.166 62 -152.499c0 -25.333 -4 -49.333 -12 -72s-16.5 -41 -25.5 -55s-24.5 -30.333 -46.5 -49s-38.333 -31.667 -49 -39
l-59 -40c-83.333 -54 -133.333 -101 -150 -141h341z" />
    <glyph glyph-name="three" unicode="3" 
d="M44 475c2 72 23.332 128.668 63.999 170.001s95.334 62 164.001 62c64.667 0 117 -17.333 157 -52s60 -80 60 -136c0 -34 -8.83301 -63.833 -26.5 -89.5s-41.5 -43.5 -71.5 -53.5c39.333 -10 70.333 -29.5 93 -58.5s34 -64.5 34 -106.5c0 -66.667 -23 -121 -69 -163
s-105.667 -63 -179 -63c-72.667 0 -131.334 21 -176.001 63s-67 97.667 -67 167v15h110c3.33301 -98 48.666 -147 135.999 -147c38.667 0 69.334 11.167 92.001 33.5s34 52.833 34 91.5c0 40.667 -13 70.334 -39 89.001s-59.667 28 -101 28
c-12.667 0 -24.667 -0.333008 -36 -1v86h10c20.667 0 38.334 1.16699 53.001 3.5s29.5 6.66602 44.5 12.999s26.5 16.666 34.5 30.999s12 32.166 12 53.499c0 30.667 -9.66699 55.334 -29 74.001s-45.333 28 -78 28c-74.667 0 -113.667 -46 -117 -138h-109z" />
    <glyph glyph-name="four" unicode="4" 
d="M522 262v-96h-89v-166h-110l-1 166h-297v113l300 427h108v-444h89zM324 262v303l-205 -303h205z" />
    <glyph glyph-name="five" unicode="5" 
d="M477 696v-99.001h-279l-32 -180c31.333 33.333 75.333 50 132 50c64.667 0 117 -21 157 -63s60 -97.333 60 -166c0 -74 -23.333 -134.333 -70 -181s-106.667 -70 -180 -70c-69.333 0 -125.5 19.167 -168.5 57.5s-65.833 89.833 -68.5 154.5h113
c2.66699 -36 15.667 -64.667 39 -86s52.666 -32 87.999 -32c41.333 0 73.333 13.167 96 39.5s34 63.5 34 111.5c0 46.667 -11.667 82.834 -35 108.501s-55.666 38.5 -96.999 38.5c-50 0 -89 -21 -117 -63l-100 3l67 377h361z" />
    <glyph glyph-name="six" unicode="6" 
d="M507 522l-109.999 0.00195312c-12 64 -47.333 96 -106 96c-16.667 0 -32 -3.33301 -46 -10s-25.667 -14.334 -35 -23.001s-17.666 -21.167 -24.999 -37.5s-12.833 -30 -16.5 -41s-7.33398 -26.833 -11.001 -47.5s-5.83398 -35 -6.50098 -43s-2 -21.333 -4 -40
c38.667 57.333 92 86 160 86c64.667 0 116.834 -21.333 156.501 -64s59.5 -98.334 59.5 -167.001c0 -71.333 -22.167 -130 -66.5 -176s-100.833 -69 -169.5 -69c-80.667 0 -142.667 30.333 -186 91s-65 147.334 -65 260.001c0 116.667 23 207.667 69 273s109.667 98 191 98
c59.333 0 107.666 -16.333 144.999 -49s59.333 -78.334 66 -137.001zM284.001 371.002c-37.333 0 -67 -12.8311 -89 -38.498s-33 -59.834 -33 -102.501c0 -44.667 11.5 -80.667 34.5 -108s53.167 -41 90.5 -41c36.667 0 66.167 13.333 88.5 40s33.5 62 33.5 106
c0 43.333 -11.333 78.166 -34 104.499s-53 39.5 -91 39.5z" />
    <glyph glyph-name="seven" unicode="7" 
d="M514 696v-96c-72.667 -72.667 -132.334 -164.5 -179.001 -275.5s-72 -219.167 -76 -324.5h-125c2.66699 94.667 30.334 200.5 83.001 317.5s114 208.167 184 273.5h-364v105h477z" />
    <glyph glyph-name="eight" unicode="8" 
d="M160 377c-31.333 11.333 -55.833 29.833 -73.5 55.5s-26.5 55.834 -26.5 90.501c0 54.667 20.5 99.334 61.5 134.001s94.167 52 159.5 52c62.667 0 114 -17.167 154 -51.5s60 -78.166 60 -131.499c0 -71.333 -33 -121 -99 -149c42.667 -14.667 74.667 -35.334 96 -62.001
s32 -62.334 32 -107.001c0 -66 -22.667 -119.167 -68 -159.5s-105 -60.5 -179 -60.5c-73.333 0 -132.5 19.667 -177.5 59s-67.5 91 -67.5 155c0 43.333 11.167 80.166 33.5 110.499s53.833 51.833 94.5 64.5zM280 617c-34.667 0 -62.167 -9.16504 -82.5 -27.498
s-30.5 -42.833 -30.5 -73.5s10.333 -55.334 31 -74.001s47.667 -28 81 -28s60 9.16699 80 27.5s30 43.166 30 74.499c0 30.667 -9.83301 55.167 -29.5 73.5s-46.167 27.5 -79.5 27.5zM277 332.002c-38.667 0 -70 -11.5 -94 -34.5s-36 -52.833 -36 -89.5
c0 -40 12 -71.667 36 -95s56.667 -35 98 -35c40 0 71.333 11.167 94 33.5s34 53.5 34 93.5c0 38.667 -12 69.5 -36 92.5s-56 34.5 -96 34.5z" />
    <glyph glyph-name="nine" unicode="9" 
d="M44 174l109.998 0.000976562c2.66699 -28.667 13.667 -52 33 -70s45 -27 77 -27c84.667 0 130.667 81.667 138 245c-38 -59.333 -90 -89 -156 -89c-62.667 0 -114.334 21.5 -155.001 64.5s-61 98.167 -61 165.5c0 71.333 22.333 130.166 67 176.499
s101.667 69.5 171 69.5c38 0 71.833 -7 101.5 -21s53.5 -32.167 71.5 -54.5s32.833 -49 44.5 -80s19.667 -61.833 24 -92.5s6.5 -63 6.5 -97c0 -46 -4.16699 -89.833 -12.5 -131.5s-21.666 -81.667 -39.999 -120s-45.166 -69 -80.499 -92s-77 -34.5 -125 -34.5
c-59.333 0 -109.166 17.667 -149.499 53s-61.833 80.333 -64.5 135zM263.998 613.001c-36 0 -64.834 -13.502 -86.501 -40.502s-32.5 -62.5 -32.5 -106.5c0 -43.333 11 -77.666 33 -102.999s51.333 -38 88 -38s66.334 13 89.001 39s34 60 34 102
c0 44.667 -11.333 80.334 -34 107.001s-53 40 -91 40z" />
    <glyph glyph-name="colon" unicode=":" horiz-adv-x="278" 
d="M207 135v-135h-136v135h136zM207 511v-135h-136v135h136z" />
    <glyph glyph-name="semicolon" unicode=";" horiz-adv-x="278" 
d="M207 511v-135h-136v135h136zM207 135v-102c0 -52 -10 -93.833 -30 -125.5s-55.333 -53.167 -106 -64.5v60c41.333 12.667 63 45 65 97h-65v135h136z" />
    <glyph glyph-name="less" unicode="&#x3c;" horiz-adv-x="600" 
d="M42 208v100l517 199v-106l-388 -143l388 -143v-108z" />
    <glyph glyph-name="equal" unicode="=" horiz-adv-x="600" 
d="M42 317v96h517v-96h-517zM42 102v96h517v-96h-517z" />
    <glyph glyph-name="greater" unicode="&#x3e;" horiz-adv-x="600" 
d="M559 208l-517 -201v108l388 143l-388 143v106l517 -199v-100z" />
    <glyph glyph-name="question" unicode="?" 
d="M208 0v127h129v-127h-129zM219 197c0 43.333 4.50098 78.499 13.501 105.499s27.5 53.5 55.5 79.5c2.66699 2.66699 9.16699 8.5 19.5 17.5s17.166 15.167 20.499 18.5l17 17.5c8 8.33301 13.5 15.166 16.5 20.499l11 20.5c4.33301 8.33301 7.33301 16.666 9 24.999
s2.5 17.166 2.5 26.499c0 29.333 -9.66699 53.333 -29 72s-44.333 28 -75 28c-78 0 -118.333 -47.333 -121 -142h-115c3.33301 74 25 132.5 65 175.5s97.667 64.5 173 64.5c67.333 0 121.5 -18.167 162.5 -54.5s61.5 -84.166 61.5 -143.499c0 -22 -2.33301 -41.667 -7 -59
s-13 -33.666 -25 -48.999s-22.667 -27.666 -32 -36.999s-24.333 -22.666 -45 -39.999c-33.333 -28.667 -53.333 -49.5 -60 -62.5s-10 -40.833 -10 -83.5h-108z" />
    <glyph glyph-name="at" unicode="@" horiz-adv-x="800" 
d="M695 129l28.0029 -37.999c-52 -38 -102 -65.5 -150 -82.5s-100 -25.5 -156 -25.5c-108.667 0 -200.5 33.5 -275.5 100.5s-112.5 154.5 -112.5 262.5c0 108.667 38.833 199.667 116.5 273s173.167 110 286.5 110c99.333 0 180.666 -27.833 243.999 -83.5
s95 -127.5 95 -215.5c0 -70 -20.833 -131.333 -62.5 -184s-90.167 -79 -145.5 -79c-24.667 0 -44.667 6.66699 -60 20s-23 31 -23 53c0 5.33301 1 12.666 3 21.999c-33.333 -63.333 -79.666 -95 -138.999 -95c-40.667 0 -73.5 14.167 -98.5 42.5s-37.5 65.166 -37.5 110.499
c0 64.667 20.167 121.167 60.5 169.5s87.166 72.5 140.499 72.5c56.667 0 94.667 -23.667 114 -71l15 55h82l-65 -219c-8 -26.667 -12 -47 -12 -61c0 -12.667 3.66699 -22.5 11 -29.5s17.666 -10.5 30.999 -10.5c33.333 0 63.666 21.5 90.999 64.5s41 91.167 41 144.5
c0 72.667 -26.333 131.667 -79 177s-121 68 -205 68c-100 0 -183.333 -32 -250 -96s-100 -144 -100 -240c0 -91.333 31.5 -166.166 94.5 -224.499s143.833 -87.5 242.5 -87.5c95.333 0 187 32.333 275 97zM493.003 436.001c0 19.333 -6.00098 35.332 -18.001 47.999
s-27.333 19 -46 19c-24.667 0 -47 -11.5 -67 -34.5s-34.833 -48.5 -44.5 -76.5s-14.5 -53.667 -14.5 -77c0 -27.333 5.83301 -49 17.5 -65s27.834 -24 48.501 -24c24 0 46 13.5 66 40.5s34.667 56.333 44 88s14 58.834 14 81.501z" />
    <glyph glyph-name="A" unicode="A" horiz-adv-x="667" 
d="M400 713l275 -713h-134l-68 189h-282l-70 -189h-129l275 713h133zM440 283l-106 300l-111 -300h217z" />
    <glyph glyph-name="B" unicode="B" horiz-adv-x="704" 
d="M74 712l325.001 0.000976562c74.667 0 131.834 -16.167 171.501 -48.5s59.5 -75.833 59.5 -130.5c0 -34 -9.33301 -64.5 -28 -91.5s-43.334 -46.5 -74.001 -58.5c41.333 -10 74 -30 98 -60s36 -67.667 36 -113c0 -62.667 -20.833 -113.334 -62.5 -152.001
s-95.834 -58 -162.501 -58h-363v712zM196.001 611.001v-196h170c48 0 83.333 7.5 106 22.5s34 40.167 34 75.5c0 40 -11.833 66.333 -35.5 79s-57.167 19 -100.5 19h-174zM196.001 325.001l0.00195312 -223h187c48 0 85.667 8 113 24s41 45 41 87
c0 23.333 -4.16699 42.833 -12.5 58.5s-20.333 27.167 -36 34.5s-31.834 12.333 -48.501 15s-36.334 4 -59.001 4h-185z" />
    <glyph glyph-name="C" unicode="C" horiz-adv-x="722" 
d="M685 271c-6.66699 -87.333 -37.832 -157.164 -93.499 -209.497s-127.834 -78.5 -216.501 -78.5c-100.667 0 -181.334 34 -242.001 102s-91 158.333 -91 271c0 68 13 129.833 39 185.5s65 100.667 117 135s113 51.5 183 51.5c75.333 0 141 -20.833 197 -62.5
s89.667 -101.834 101 -180.501h-124c-8.66699 42.667 -28.667 76.167 -60 100.5s-70 36.5 -116 36.5c-47.333 0 -87.5 -13.333 -120.5 -40s-56.333 -59.5 -70 -98.5s-20.5 -81.5 -20.5 -127.5c0 -34.667 4 -67.334 12 -98.001s20 -58.834 36 -84.501
s37.833 -46.167 65.5 -61.5s59.834 -23 96.501 -23c106 0 166.667 60.667 182 182h125z" />
    <glyph glyph-name="D" unicode="D" horiz-adv-x="722" 
d="M75 712h271.001c49.333 0 92.666 -5.16699 129.999 -15.5s71.666 -29.5 102.999 -57.5c70 -62.667 105 -153 105 -271c0 -126 -33.333 -222.333 -100 -289c-29.333 -29.333 -61.166 -49.833 -95.499 -61.5s-79.5 -17.5 -135.5 -17.5h-278v712zM199.001 606v-501h147
c78 0 133 22.667 165 68s48 108.333 48 189c0 76.667 -18 136.5 -54 179.5s-91.667 64.5 -167 64.5h-139z" />
    <glyph glyph-name="E" unicode="E" horiz-adv-x="630" 
d="M587 712v-105h-389v-189h361v-101h-361v-210h395v-107h-519v712h513z" />
    <glyph glyph-name="F" unicode="F" horiz-adv-x="593" 
d="M568 712v-106h-367v-194h322v-101h-322v-311h-126v712h493z" />
    <glyph glyph-name="G" unicode="G" horiz-adv-x="759" 
d="M700 381l-0.00292969 -381.001h-80l-19 85c-56.667 -68 -130.667 -102 -222 -102c-100 0 -181.167 34 -243.5 102s-93.5 156.667 -93.5 266c0 107.333 31.333 196.833 94 268.5s147.334 107.5 254.001 107.5c77.333 0 144.833 -21.667 202.5 -65s90.5 -102.333 98.5 -177
h-121c-7.33301 42.667 -27.166 76.167 -59.499 100.5s-72.833 36.5 -121.5 36.5c-68.667 0 -122.667 -24 -162 -72s-59 -113.667 -59 -197c0 -84 19.833 -149.833 59.5 -197.5s94.834 -71.5 165.501 -71.5c62 0 109.833 19.333 143.5 58s50.5 86.334 50.5 143.001h-192v96
h305z" />
    <glyph glyph-name="H" unicode="H" horiz-adv-x="722" 
d="M649 712v-712h-125v320h-326v-320h-125v712h125v-283h326v283h125z" />
    <glyph glyph-name="I" unicode="I" horiz-adv-x="278" 
d="M202 712v-712h-126v712h126z" />
    <glyph glyph-name="J" unicode="J" horiz-adv-x="537" 
d="M470 712l-0.00292969 -501c0 -74.667 -18.5 -131.334 -55.5 -170.001s-91.5 -58 -163.5 -58c-80.667 0 -138.5 20.333 -173.5 61s-52.5 100.334 -52.5 179.001v27h119v-39c0 -40.667 7.33301 -71.834 22 -93.501s41.667 -32.5 81 -32.5c18 0 33.333 2.83301 46 8.5
s22.334 12.334 29.001 20.001s11.834 18.5 15.501 32.5s5.83398 26.5 6.50098 37.5s1 25.833 1 44.5v484h125z" />
    <glyph glyph-name="K" unicode="K" horiz-adv-x="685" 
d="M671 712l-285 -284l303 -428h-155l-234 341l-102 -102v-239h-124v712h124v-323l315 323h158z" />
    <glyph glyph-name="L" unicode="L" horiz-adv-x="574" 
d="M562 108v-108h-488v712h126v-604h362z" />
    <glyph glyph-name="M" unicode="M" horiz-adv-x="889" 
d="M815 712v-712h-119v549l-198 -549h-102l-203 549v-549h-118v712h175l199 -557l192 557h174z" />
    <glyph glyph-name="N" unicode="N" horiz-adv-x="722" 
d="M652 712v-712h-129l-332 524v-524h-118v712h131l328 -525v525h120z" />
    <glyph glyph-name="O" unicode="O" horiz-adv-x="760" 
d="M382 729c100.667 0 182.499 -34.5 245.499 -103.5s94.5 -158.833 94.5 -269.5s-31.667 -200.5 -95 -269.5s-145.666 -103.5 -246.999 -103.5c-102 0 -184.5 34.333 -247.5 103s-94.5 158.667 -94.5 270c0 108 30.833 197.167 92.5 267.5s145.5 105.5 251.5 105.5z
M379.999 624c-65.333 0 -117.667 -24.165 -157 -72.498s-59 -112.833 -59 -193.5c0 -82.667 19.5 -148.334 58.5 -197.001s92.167 -73 159.5 -73c64.667 0 116.5 24.5 155.5 73.5s58.5 114.167 58.5 195.5s-19.5 146.166 -58.5 194.499s-91.5 72.5 -157.5 72.5z" />
    <glyph glyph-name="P" unicode="P" horiz-adv-x="667" 
d="M77 712h308.999c76.667 0 137.167 -18.167 181.5 -54.5s66.5 -90.5 66.5 -162.5c0 -68 -20.667 -121.833 -62 -161.5s-97.666 -59.5 -168.999 -59.5h-201v-274h-125v712zM201.999 608v-233h174c90.667 0 136 39 136 117c0 77.333 -49 116 -147 116h-163z" />
    <glyph glyph-name="Q" unicode="Q" horiz-adv-x="760" 
d="M713 2l-61 -68l-106 90c-43.333 -27.333 -99.666 -41 -168.999 -41c-100.667 0 -182.334 34.167 -245.001 102.5s-94 157.833 -94 268.5c0 110 31.833 199.667 95.5 269s146.167 104 247.5 104c100 0 181.667 -34.5 245 -103.5s95 -157.833 95 -266.5
c0 -56.667 -8.83301 -109 -26.5 -157s-42.5 -87.333 -74.5 -118zM532 159c42.667 54 64 119.667 64 197c0 80.667 -19.667 145.167 -59 193.5s-92 72.5 -158 72.5c-65.333 0 -117.5 -24.167 -156.5 -72.5s-58.5 -112.833 -58.5 -193.5c0 -82.667 19.667 -148.5 59 -197.5
s92 -73.5 158 -73.5c28 0 54.667 5.66699 80 17l-73 62l60 68z" />
    <glyph glyph-name="R" unicode="R" horiz-adv-x="704" 
d="M74 712l336.997 -0.00292969c70.667 0 128.334 -15.833 173.001 -47.5s67 -81.834 67 -150.501c0 -42.667 -10.333 -79.167 -31 -109.5s-49.667 -52.166 -87 -65.499c17.333 -4 32.333 -10 45 -18s22.5 -16.667 29.5 -26s12.833 -21.333 17.5 -36
s7.83398 -27.5 9.50098 -38.5s3.16699 -25.5 4.5 -43.5c0.666992 -4.66699 1.5 -13.667 2.5 -27l2 -26.5c0.333008 -4.33301 1 -11.833 2 -22.5s1.83301 -18.167 2.5 -22.5s1.83398 -10.666 3.50098 -18.999s3.16699 -14.666 4.5 -18.999s3 -9.33301 5 -15
s4.33301 -10.5 7 -14.5s5.66699 -7.66699 9 -11h-134c-2 2.66699 -3.83301 5.83398 -5.5 9.50098s-3.16699 7.66699 -4.5 12s-2.33301 8.33301 -3 12s-1.5 8.66699 -2.5 15s-1.66699 11.5 -2 15.5l-1.5 18l-1.5 18c-0.333008 4 -0.833008 11 -1.5 21s-1 17 -1 21
c-3.33301 58 -15.5 97.833 -36.5 119.5s-60.833 32.5 -119.5 32.5h-166v-294h-124v712zM197.997 609.997v-223h165c24 0 44.333 1.33301 61 4s33.5 7.5 50.5 14.5s30 18.5 39 34.5s13.5 36.333 13.5 61c0 22.667 -4 41.5 -12 56.5s-19.5 26.167 -34.5 33.5
s-30.333 12.333 -46 15s-34.167 4 -55.5 4h-181z" />
    <glyph glyph-name="S" unicode="S" horiz-adv-x="648" 
d="M587 502l-119 -0.000976562c-7.33301 83.333 -59 125 -155 125c-42.667 0 -76 -8.83301 -100 -26.5s-36 -41.834 -36 -72.501c0 -28.667 8.83301 -48.334 26.5 -59.001s56.834 -23.667 117.501 -39c16 -4.66699 28.333 -8 37 -10c79.333 -20 133.333 -38 162 -54
c63.333 -34 95 -87 95 -159c0 -31.333 -5.33301 -59.666 -16 -84.999s-25 -46.5 -43 -63.5s-39.333 -31.167 -64 -42.5s-50.334 -19.5 -77.001 -24.5s-54.334 -7.5 -83.001 -7.5c-89.333 0 -161.666 21.333 -216.999 64s-83 105.334 -83 188.001h123
c0 -52 17 -90.5 51 -115.5s78.333 -37.5 133 -37.5c48 0 85.5 9.83301 112.5 29.5s40.5 47.167 40.5 82.5c0 22.667 -7.16699 41.167 -21.5 55.5s-29.833 24.5 -46.5 30.5s-45.667 14.333 -87 25c-4.66699 1.33301 -8.33398 2.33301 -11.001 3
c-88.667 22.667 -147 41.334 -175 56.001c-58 30 -89 76.333 -93 139v14c0 63.333 23.833 113.833 71.5 151.5s111.5 56.5 191.5 56.5c77.333 0 140.333 -18.333 189 -55s74.334 -93 77.001 -169z" />
    <glyph glyph-name="T" unicode="T" horiz-adv-x="593" 
d="M586 712v-108h-227v-604h-125v604h-227v108h579z" />
    <glyph glyph-name="U" unicode="U" horiz-adv-x="722" 
d="M653 712l0.000976562 -435.997c0 -193.333 -96.667 -290 -290 -290c-100.667 0 -174.834 24 -222.501 72s-71.5 121.333 -71.5 220v434h125v-459c0 -109.333 57 -164 171 -164c34.667 0 63.167 4.66699 85.5 14s38.833 23.666 49.5 42.999s18 40.166 22 62.499
s6 50.166 6 83.499v420h125z" />
    <glyph glyph-name="V" unicode="V" horiz-adv-x="611" 
d="M-5 712h131l180 -563l184 563h127l-244 -712h-139z" />
    <glyph glyph-name="W" unicode="W" horiz-adv-x="944" 
d="M8 712h127l130 -542l146 542h127l141 -542l134 542h127l-197 -712h-127l-144 547l-147 -547h-129z" />
    <glyph glyph-name="X" unicode="X" horiz-adv-x="648" 
d="M-6 0l254 369l-236 343h149l162 -252l169 252h140l-236 -343l253 -369h-152l-178 272l-181 -272h-144z" />
    <glyph glyph-name="Y" unicode="Y" horiz-adv-x="648" 
d="M655 712l-268 -429v-283h-123v283l-269 429h144l189 -315l187 315h140z" />
    <glyph glyph-name="Z" unicode="Z" horiz-adv-x="630" 
d="M592 712v-99l-415 -505h427v-108h-585v103l412 501h-382v108h543z" />
    <glyph glyph-name="bracketleft" unicode="[" horiz-adv-x="296" 
d="M295 720v-89h-118v-722h118v-89h-224v900h224z" />
    <glyph glyph-name="backslash" unicode="\" horiz-adv-x="352" 
d="M259 -17l-256 746h92l256 -746h-92z" />
    <glyph glyph-name="bracketright" unicode="]" horiz-adv-x="296" 
d="M1 720h224v-900h-224v89h118v722h-118v89z" />
    <glyph glyph-name="asciicircum" unicode="^" horiz-adv-x="600" 
d="M80 271l175 425h90l175 -425h-103l-119 298l-115 -298h-103z" />
    <glyph glyph-name="underscore" unicode="_" horiz-adv-x="500" 
d="M0 -125v50h500v-50h-500z" />
    <glyph glyph-name="grave" unicode="`" horiz-adv-x="241" 
d="M98 727l91 -143h-83l-142 143h134z" />
    <glyph glyph-name="a" unicode="a" 
d="M55 357c12 116.667 87.3301 174.999 225.997 174.999c64.667 0 116.167 -12.667 154.5 -38s57.5 -64.666 57.5 -117.999v-262c0 -14.667 1.83301 -24.667 5.5 -30s10.834 -8 21.501 -8c8 0 16.667 0.666992 26 2v-80c-29.333 -7.33301 -54 -11 -74 -11
c-48.667 0 -76.667 20.667 -84 62c-43.333 -41.333 -103.666 -62 -180.999 -62c-53.333 0 -95.666 13.833 -126.999 41.5s-47 65.167 -47 112.5c0 14.667 1.66699 28.334 5 41.001s7.16602 23.667 11.499 33s11.333 18 21 26l24 20c6.33301 5.33301 16.666 10.333 30.999 15
l32 10.5c7 2.33301 19.167 4.83301 36.5 7.5s28.833 4.5 34.5 5.5s17.5 2.5 35.5 4.5c40.667 5.33301 68.334 9.83301 83.001 13.5s24.667 9.16699 30 16.5c4.66699 5.33301 7 17.666 7 36.999c0 52 -35.333 78 -106 78c-37.333 0 -64.666 -7 -81.999 -21
s-28.333 -37.667 -33 -71h-108zM382.997 258.999c-8.66699 -4.66699 -18.666 -8.83203 -29.999 -12.499s-20.5 -6 -27.5 -7l-33 -4.5c-15 -2 -24.833 -3.33301 -29.5 -4c-14 -2 -25 -3.83301 -33 -5.5s-17.833 -4.5 -29.5 -8.5s-20.667 -8.83301 -27 -14.5
s-11.833 -13.334 -16.5 -23.001s-7 -21.167 -7 -34.5c0 -24.667 8.16699 -43.667 24.5 -57s39.166 -20 68.499 -20c50.667 0 89.667 13.667 117 41c15.333 15.333 23 45 23 89v61z" />
    <glyph glyph-name="b" unicode="b" horiz-adv-x="611" 
d="M174 712v-263c38 53.333 94.333 80 169 80c68.667 0 123.834 -24.333 165.501 -73s62.5 -113.334 62.5 -194.001c0 -83.333 -21.333 -150.166 -64 -200.499s-99.334 -75.5 -170.001 -75.5c-78 0 -134.333 28 -169 84v-70h-107v712h113zM314 438
c-44.667 0.666992 -79.834 -15.167 -105.501 -47.5s-38.5 -76.833 -38.5 -133.5c0 -55.333 12.833 -99 38.5 -131s60.834 -48 105.501 -48c42.667 0 77 16.5 103 49.5s39 77.167 39 132.5c0 54.667 -12.833 98 -38.5 130s-60.167 48 -103.5 48z" />
    <glyph glyph-name="c" unicode="c" 
d="M528 195c-8 -63.333 -33.3311 -113.833 -75.998 -151.5s-96.334 -56.5 -161.001 -56.5c-77.333 0 -139 24.5 -185 73.5s-69 113.167 -69 192.5c0 85.333 23.167 153.166 69.5 203.499s108.833 75.5 187.5 75.5c66 0 119.167 -16.667 159.5 -50
s63.833 -79.666 70.5 -138.999h-113c-6.66699 32.667 -20 57.667 -40 75s-45.333 26 -76 26c-44 0 -78.667 -16.5 -104 -49.5s-38 -78.167 -38 -135.5s12.167 -102 36.5 -134s58.166 -48 101.499 -48c34 0 61.833 10.167 83.5 30.5s35.5 49.5 41.5 87.5h112z" />
    <glyph glyph-name="d" unicode="d" horiz-adv-x="611" 
d="M549 712v-711.999h-107v71c-32.667 -56.667 -87.667 -85 -165 -85c-72.667 0 -130.5 24.667 -173.5 74s-64.5 115.666 -64.5 198.999c0 82.667 21.167 148.5 63.5 197.5s99.166 73.5 170.499 73.5c72.667 0 127.334 -27 164.001 -81v263h112zM294 438.001
c-43.333 0 -77.501 -15.8311 -102.501 -47.498s-37.5 -74.834 -37.5 -129.501c0 -56.667 12.833 -101.334 38.5 -134.001s60.834 -49 105.501 -49s79.5 16 104.5 48s37.5 76.333 37.5 133s-12.833 100.667 -38.5 132s-61.5 47 -107.5 47z" />
    <glyph glyph-name="e" unicode="e" 
d="M522 161c-12.667 -56 -40.167 -99.668 -82.5 -131.001s-92.833 -47 -151.5 -47c-78 0 -139.833 25.167 -185.5 75.5s-68.5 114.833 -68.5 193.5c0 80.667 23.5 147.334 70.5 200.001s106.833 79 179.5 79c75.333 0 135 -25.833 179 -77.5s66 -122.167 66 -211.5v-12h-381
c1.33301 -52 14.333 -92.167 39 -120.5s59 -42.5 103 -42.5c31.333 0 56.833 7.5 76.5 22.5s35.167 38.833 46.5 71.5h109zM415 305.999c-3.33301 43.333 -16.833 77.5 -40.5 102.5s-54.167 37.5 -91.5 37.5s-67.5 -12 -90.5 -36s-37.167 -58.667 -42.5 -104h265z" />
    <glyph glyph-name="f" unicode="f" horiz-adv-x="315" 
d="M316 713v-88c-22 2 -38.667 3 -50 3c-23.333 0 -39 -4.16699 -47 -12.5s-12 -24.833 -12 -49.5v-50h98v-83h-97v-433h-113v433h-85v83h85v41c0 54 11.667 94 35 120s62.666 39 117.999 39c22.667 0 45.334 -1 68.001 -3z" />
    <glyph glyph-name="g" unicode="g" horiz-adv-x="593" 
d="M533 516l-0.000976562 -455.999c0 -88.667 -18.833 -154.334 -56.5 -197.001s-101.5 -64 -191.5 -64c-141.333 0 -218.333 52.333 -231 157h114c10.667 -51.333 50.667 -77 120 -77c47.333 0 81.833 12 103.5 36s32.5 62.667 32.5 116v61c-37.333 -58 -92 -87 -164 -87
c-68.667 0 -123.167 23.167 -163.5 69.5s-60.5 108.833 -60.5 187.5c0 80.667 21 145.5 63 194.5s97.667 73.5 167 73.5c36.667 0 67.334 -6.83301 92.001 -20.5s47.667 -35.5 69 -65.5v72h106zM285.999 438.001c-42.667 0 -76.1689 -15.333 -100.502 -46
s-36.5 -73.334 -36.5 -128.001c0 -52 12.5 -93.333 37.5 -124s58.167 -46 99.5 -46c42.667 0 76.334 15.833 101.001 47.5s37 74.5 37 128.5c0 52.667 -12.167 93.834 -36.5 123.501s-58.166 44.5 -101.499 44.5z" />
    <glyph glyph-name="h" unicode="h" horiz-adv-x="574" 
d="M174 712v-267c38 56 92.333 84 163 84c56 0 99.667 -15.167 131 -45.5s47 -74.833 47 -133.5v-350h-115v313c0 39.333 -6.83301 69.333 -20.5 90s-40.167 31 -79.5 31c-44 0 -76 -14.333 -96 -43s-30 -66.667 -30 -114v-277h-113v712h113z" />
    <glyph glyph-name="i" unicode="i" horiz-adv-x="241" 
d="M177 715v-112h-114v112h114zM177 516v-516h-114v516h114z" />
    <glyph glyph-name="j" unicode="j" horiz-adv-x="241" 
d="M181 516v-542.999c0 -60.667 -11.167 -104.334 -33.5 -131.001s-61.833 -40 -118.5 -40c-10 0 -26 1 -48 3v93c17.333 -1.33301 26.333 -2 27 -2c21.333 0 36.5 3 45.5 9s13.5 18.667 13.5 38v573h114zM181 716.001v-113h-114v113h114z" />
    <glyph glyph-name="k" unicode="k" horiz-adv-x="537" 
d="M518 516l-198 -189l216 -327h-139l-157 249l-68 -64v-185h-111v712h111v-401l206 205h140z" />
    <glyph glyph-name="l" unicode="l" horiz-adv-x="241" 
d="M177 712v-712h-113v712h113z" />
    <glyph glyph-name="m" unicode="m" horiz-adv-x="870" 
d="M169 516v-73.002c42.667 58 96.667 87 162 87c34 0 63.5 -7.66699 88.5 -23s43.5 -37 55.5 -65c41.333 58.667 97 88 167 88c48.667 0 89 -14.5 121 -43.5s48 -69.167 48 -120.5v-366h-114v317c0 36.667 -6.33301 65.334 -19 86.001s-37 31 -73 31
c-36.667 0 -64.667 -11.5 -84 -34.5s-29 -55.167 -29 -96.5v-303h-114v323c0 36.667 -5.5 64.334 -16.5 83.001s-33.833 28 -68.5 28c-38.667 0 -68 -12.5 -88 -37.5s-30 -58.167 -30 -99.5v-297h-114v516h108z" />
    <glyph glyph-name="n" unicode="n" horiz-adv-x="574" 
d="M169 516v-76.001c41.333 60 98.333 90 171 90c58.667 0 102.5 -16 131.5 -48s43.5 -78 43.5 -138v-344h-114v300c0 20.667 -1 37.834 -3 51.501s-6.16699 27.5 -12.5 41.5s-16.5 24.5 -30.5 31.5s-32 10.5 -54 10.5c-84 0 -126 -52.333 -126 -157v-278h-114v516h108z" />
    <glyph glyph-name="o" unicode="o" horiz-adv-x="593" 
d="M299 531c78.667 0 141.332 -24.667 187.999 -74s70 -115.666 70 -198.999c0 -84 -23.167 -150.667 -69.5 -200s-109.166 -74 -188.499 -74c-80.667 0 -144.667 24.667 -192 74s-71 116 -71 200c0 83.333 23.833 149.666 71.5 198.999s111.5 74 191.5 74zM296.998 441
c-45.333 0 -81.001 -16.332 -107.001 -48.999s-39 -77.334 -39 -134.001c0 -58 13 -103.333 39 -136s62 -49 108 -49c44.667 0 79.834 16.5 105.501 49.5s38.5 78.5 38.5 136.5c0 56.667 -12.833 101.167 -38.5 133.5s-61.167 48.5 -106.5 48.5z" />
    <glyph glyph-name="p" unicode="p" horiz-adv-x="611" 
d="M169 516v-69c34.667 56 90.667 84 168 84c71.333 0 128.333 -25 171 -75s64 -116.667 64 -200c0 -81.333 -20.833 -146.5 -62.5 -195.5s-97.167 -73.5 -166.5 -73.5c-73.333 0 -129.333 27 -168 81v-259h-113v707h107zM314 439c-44.667 0 -79.666 -16 -104.999 -48
s-38 -76.333 -38 -133c0 -56 12.833 -100 38.5 -132s61.167 -48 106.5 -48c43.333 0 77.666 16 102.999 48s38 75.333 38 130c0 56 -12.833 100.5 -38.5 133.5s-60.5 49.5 -104.5 49.5z" />
    <glyph glyph-name="q" unicode="q" horiz-adv-x="611" 
d="M549 516v-707h-112v260c-40.667 -54.667 -97 -82 -169 -82c-70 0 -125.667 24.167 -167 72.5s-62 113.833 -62 196.5c0 84.667 21.167 151.667 63.5 201s99.833 74 172.5 74c76 0 131.667 -27.667 167 -83v68h107zM294 439c-42.667 0 -76.666 -16.498 -101.999 -49.498
s-38 -77.833 -38 -134.5c0 -54.667 12.667 -97.834 38 -129.501s60 -47.5 104 -47.5c45.333 0 80.666 16.167 105.999 48.5s38 77.166 38 134.499c0 56 -12.833 99.667 -38.5 131s-61.5 47 -107.5 47z" />
    <glyph glyph-name="r" unicode="r" horiz-adv-x="352" 
d="M352 526l-0.000976562 -109c-20 2 -33.333 3 -40 3c-99.333 0 -149 -64.333 -149 -193v-227h-113v516h107v-103c36.667 76.667 94.334 115 173.001 115z" />
    <glyph glyph-name="s" unicode="s" horiz-adv-x="519" 
d="M469 366l-109.001 -0.00390625c-6.66699 54.667 -44 82 -112 82c-29.333 0 -52 -5.33301 -68 -16s-24 -25.334 -24 -44.001c0 -6 0.5 -11.333 1.5 -16s3 -8.83398 6 -12.501l8 -9.5c2.33301 -2.66699 6.5 -5.33398 12.5 -8.00098l14.5 -6.5
c3.66699 -1.66699 9.83398 -3.66699 18.501 -6l20.5 -5.5c5 -1.33301 13.167 -3.16602 24.5 -5.49902s20 -4.16602 26 -5.49902c26 -6 44.833 -10.5 56.5 -13.5s28.667 -9 51 -18s38.833 -18.333 49.5 -28s20.5 -23 29.5 -40s13.5 -36.5 13.5 -58.5
c0 -52 -20.333 -93.333 -61 -124s-95.334 -46 -164.001 -46c-73.333 0 -129.666 15.333 -168.999 46s-60.333 75.334 -63 134.001h109c6 -64.667 47.667 -97 125 -97c33.333 0 60.166 6.83301 80.499 20.5s30.5 31.834 30.5 54.501c0 11.333 -2.5 21 -7.5 29
s-13.167 14.833 -24.5 20.5s-22.166 10 -32.499 13s-24.166 6.5 -41.499 10.5c-7.33301 2 -13 3.33301 -17 4c-73.333 18 -120 32 -140 42c-47.333 22.667 -71 60.334 -71 113.001c0 48.667 18.667 86.834 56 114.501s89 41.5 155 41.5
c63.333 0 115.166 -13.667 155.499 -41s60.5 -68.666 60.5 -123.999z" />
    <glyph glyph-name="t" unicode="t" horiz-adv-x="333" 
d="M312 516l0.00390625 -82.999h-104v-272c0 -16 0.333008 -27.167 1 -33.5s2.66699 -13.333 6 -21s9.16602 -12.834 17.499 -15.501s19.833 -4 34.5 -4c18.667 0 33.667 0.666992 45 2v-90c-22.667 -2.66699 -48.334 -4 -77.001 -4c-20 0 -37.5 1.5 -52.5 4.5
s-27.5 6.5 -37.5 10.5s-18.333 10.833 -25 20.5s-11.834 17.667 -15.501 24s-6.33398 17.5 -8.00098 33.5s-2.5 28.167 -2.5 36.5v43.5v19v246h-86v83h86v155h114v-155h104z" />
    <glyph glyph-name="u" unicode="u" horiz-adv-x="574" 
d="M513 516l-0.000976562 -516.001h-107v77c-43.333 -60.667 -100 -91 -170 -91c-56.667 0 -100.167 16.167 -130.5 48.5s-45.5 78.833 -45.5 139.5v342h114v-295c0 -18 0.333008 -32.5 1 -43.5s2.83398 -23.333 6.50098 -37s9 -24.167 16 -31.5s17 -13.666 30 -18.999
s28.833 -8 47.5 -8c42.667 0 74 15.167 94 45.5s30 68.833 30 115.5v273h114z" />
    <glyph glyph-name="v" unicode="v" horiz-adv-x="519" 
d="M8 516h124l132 -397l127 397h118l-185 -517h-128z" />
    <glyph glyph-name="w" unicode="w" horiz-adv-x="778" 
d="M12 516h121l102 -387l97 387h115l95 -387l107 387h116l-163 -516h-117l-97 383l-96 -383h-120z" />
    <glyph glyph-name="x" unicode="x" horiz-adv-x="537" 
d="M198 271l-179 245h138l108 -159l113 159h132l-175 -239l197 -277h-137l-131 190l-127 -190h-134z" />
    <glyph glyph-name="y" unicode="y" horiz-adv-x="519" 
d="M515 516l-191 -506.002c-2 -4.66699 -5.66699 -14.5 -11 -29.5l-11 -30.5c-2 -5.33301 -5.83301 -14.666 -11.5 -27.999s-10.167 -22.666 -13.5 -27.999l-15 -24c-6.66699 -10.667 -12.834 -18.334 -18.501 -23.001l-21 -17.5c-8.33301 -7 -16.833 -12 -25.5 -15
s-18.5 -5.66699 -29.5 -8s-22.833 -3.5 -35.5 -3.5c-21.333 0 -47.666 2 -78.999 6v96c24 -4.66699 44 -7 60 -7c8 0 15.333 1.16699 22 3.5s12.667 6.33301 18 12s10 11 14 16s7.83301 12 11.5 21l8.5 21c2 5 4.66699 12.833 8 23.5s5.33301 17.334 6 20.001l-198 501h125
l138 -380l130 380h119z" />
    <glyph glyph-name="z" unicode="z" horiz-adv-x="500" 
d="M462 516v-80l-292 -344h307v-92h-455v87l288 339h-268v90h420z" />
    <glyph glyph-name="braceleft" unicode="{" horiz-adv-x="296" 
d="M-24 300c46 7.33301 78.834 20.502 98.501 39.502s29.5 48.833 29.5 89.5v76c0 77.333 17.5 131.666 52.5 162.999s89.5 48.666 163.5 51.999v-61c-42 -4 -72.167 -17 -90.5 -39s-27.5 -56.333 -27.5 -103v-58c0 -58 -9.5 -102.333 -28.5 -133
s-55.833 -49.334 -110.5 -56.001c56.667 -8.66699 94 -27.667 112 -57s27 -73.666 27 -132.999v-60c0 -43.333 9 -76.5 27 -99.5s48.333 -36.167 91 -39.5v-61c-76.667 4 -131.834 21 -165.501 51s-50.5 84 -50.5 162v59c0 49.333 -8.33301 84 -25 104s-51 34.333 -103 43
v61z" />
    <glyph glyph-name="bar" unicode="|" horiz-adv-x="222" 
d="M61 -214v1000h100v-1000h-100z" />
    <glyph glyph-name="braceright" unicode="}" horiz-adv-x="296" 
d="M320 239c-52 -8.66699 -86.332 -23.002 -102.999 -43.002s-25 -54.667 -25 -104v-59c0 -78 -16.833 -132 -50.5 -162s-88.834 -47 -165.501 -51v61c42.667 3.33301 73 16.5 91 39.5s27 56.167 27 99.5v60c0 59.333 9 103.666 27 132.999s55.333 48.333 112 57
c-54.667 6.66699 -91.5 25.334 -110.5 56.001s-28.5 75 -28.5 133v58c0 46.667 -9.16699 81 -27.5 103s-48.5 35 -90.5 39v61c74 -3.33301 128.5 -20.666 163.5 -51.999s52.5 -85.666 52.5 -162.999v-76c0 -40.667 9.83301 -70.5 29.5 -89.5s52.5 -32.167 98.5 -39.5v-61z
" />
    <glyph glyph-name="asciitilde" unicode="~" horiz-adv-x="600" 
d="M567 340c-5.33301 -52.667 -20.332 -93 -44.999 -121s-57.334 -42 -98.001 -42c-22 0 -66.667 10.667 -134 32c-4.66699 2 -14.334 5.5 -29.001 10.5l-36 12.5c-9.33301 3.33301 -19.833 6.5 -31.5 9.5s-21.167 4.5 -28.5 4.5c-17.333 0 -32.166 -6.5 -44.499 -19.5
s-19.833 -30.167 -22.5 -51.5h-65c4.66699 46.667 18.667 85.667 42 117s56.666 47 99.999 47c20 0 65 -11.333 135 -34c6.66699 -2 15.834 -5 27.501 -9l25 -8.5l19.5 -6.5c8 -2.66699 14.5 -4.5 19.5 -5.5s10.667 -1.83301 17 -2.5s12.5 -1 18.5 -1
c35.333 0 57 22.667 65 68h65z" />
    <glyph glyph-name="sterling" unicode="&#xa3;" 
d="M218 383l145.999 0.000976562v-63h-118v-1c8 -24 12 -47 12 -69c0 -28 -7.66699 -54.5 -23 -79.5s-41 -52.167 -77 -81.5c36.667 16.667 70.334 25 101.001 25c22 0 47.333 -4 76 -12c34 -10 58.667 -15 74 -15c36.667 0 68 13 94 39l51 -85
c-36.667 -36.667 -87 -55 -151 -55c-21.333 0 -59.666 8 -114.999 24c-38 11.333 -69.667 17 -95 17c-28 0 -62.333 -13 -103 -39l-54 81c72.667 49.333 109 105.333 109 168c0 23.333 -7.66699 51 -23 83h-89v63h58c-10.667 14 -20.334 35.167 -29.001 63.5
s-13 51.5 -13 69.5c0 60.667 22.167 110 66.5 148s102.166 57 173.499 57c76.667 0 136.167 -21 178.5 -63s63.5 -100.667 63.5 -176h-113c-3.33301 94 -46.333 141 -129 141c-34.667 0 -63.167 -10.667 -85.5 -32s-33.5 -48.333 -33.5 -81c0 -5.33301 0.5 -11 1.5 -17
s2 -11.333 3 -16s2.83301 -10.5 5.5 -17.5l6 -15.5c1.33301 -3.33301 4 -8.83301 8 -16.5l7.5 -14.5c1 -2 3.83301 -7.33301 8.5 -16s7.33398 -13.334 8.00098 -14.001z" />
    <glyph glyph-name="currency" unicode="&#xa4;" 
d="M34 160l66.001 66.001c-24.667 40 -37 80 -37 120c0 44 12.333 84 37 120l-66 66l58 58l66 -66c32.667 24.667 72.667 37 120 37c41.333 0 81.666 -12.333 120.999 -37l65 66l58 -58l-66 -66c24.667 -32.667 37 -73 37 -121c0 -40.667 -12.333 -80.334 -37 -119.001
l66 -66l-58 -58l-66 66c-33.333 -24.667 -73 -37 -119 -37c-44.667 0 -85 12.333 -121 37l-66 -66zM278.001 474.001c-35.333 0 -65.5 -12.5 -90.5 -37.5s-37.5 -55.167 -37.5 -90.5s12.5 -65.5 37.5 -90.5s55.167 -37.5 90.5 -37.5s65.5 12.5 90.5 37.5
s37.5 55.167 37.5 90.5s-12.5 65.5 -37.5 90.5s-55.167 37.5 -90.5 37.5z" />
    <glyph glyph-name="brokenbar" unicode="&#xa6;" horiz-adv-x="222" 
d="M61 -89v250h100v-250h-100zM61 411v250h100v-250h-100z" />
    <glyph glyph-name="section" unicode="&#xa7;" 
d="M479 541l-105.001 0.00195312c-2 30.667 -11 54 -27 70s-38 24 -66 24c-25.333 0 -45.666 -6.5 -60.999 -19.5s-23 -30.167 -23 -51.5c0 -6.66699 1 -13 3 -19s4.16699 -11.333 6.5 -16s6.5 -9.83398 12.5 -15.501s11.333 -10.334 16 -14.001s12.334 -8.66699 23.001 -15
l27 -15.5l34 -18.5l38 -20.5c58 -32 96 -55.667 114 -71c40 -34 60 -73.667 60 -119c0 -32.667 -9 -62 -27 -88s-43.333 -45.667 -76 -59c36.667 -29.333 55 -67.666 55 -114.999c0 -49.333 -18.833 -89.666 -56.5 -120.999s-85.834 -47 -144.501 -47
c-64.667 0 -115.667 17 -153 51s-56.666 80.667 -57.999 140h107c7.33301 -66.667 42.333 -100 105 -100c26 0 47.167 6.83301 63.5 20.5s24.5 31.5 24.5 53.5c0 25.333 -12.333 47.166 -37 65.499s-77.667 49.166 -159 92.499c-31.333 16 -56.333 30.667 -75 44
s-35.834 32.166 -51.501 56.499s-23.5 51.833 -23.5 82.5c0 34 9.5 64 28.5 90s44.5 43.667 76.5 53c-29.333 30 -44 64 -44 102c0 48 18.333 87.167 55 117.5s84 45.5 142 45.5c59.333 0 106.833 -16.667 142.5 -50s53.5 -77.666 53.5 -132.999zM188.999 405.002
c-18.667 -5.33301 -33.833 -15.499 -45.5 -30.499s-17.5 -31.5 -17.5 -49.5c0 -30.667 19.667 -56.667 59 -78l181 -102c18 6 32.833 16.5 44.5 31.5s17.5 30.833 17.5 47.5c0 29.333 -18.667 54.666 -56 75.999z" />
    <glyph glyph-name="copyright" unicode="&#xa9;" horiz-adv-x="800" 
d="M400 729c102.667 0 190.5 -36.5 263.5 -109.5s109.5 -160.833 109.5 -263.5s-36.5 -190.5 -109.5 -263.5s-160.833 -109.5 -263.5 -109.5s-190.5 36.5 -263.5 109.5s-109.5 160.833 -109.5 263.5s36.5 190.5 109.5 263.5s160.833 109.5 263.5 109.5zM400 680
c-89.333 0 -165.666 -31.667 -228.999 -95s-95 -139.666 -95 -228.999s31.667 -165.666 95 -228.999s139.666 -95 228.999 -95s165.666 31.667 228.999 95s95 139.666 95 228.999s-31.667 165.666 -95 228.999s-139.666 95 -228.999 95zM585 288
c-4.66699 -43.333 -23.5049 -79.168 -56.5049 -107.501s-72.5 -42.5 -118.5 -42.5c-59.333 0 -108.5 20.833 -147.5 62.5s-58.5 93.834 -58.5 156.501c0 64 18.5 116.667 55.5 158s84.167 62 141.5 62c49.333 0 91.333 -14.667 126 -44s53.334 -66.333 56.001 -111h-76
c-5.33301 28 -17.166 50 -35.499 66s-41.166 24 -68.499 24c-35.333 0 -63.666 -14 -84.999 -42s-32 -64.667 -32 -110c0 -48 11 -86.167 33 -114.5s51.667 -42.5 89 -42.5c54.667 0 88.334 28.333 101.001 85h76z" />
    <glyph glyph-name="guillemotleft" unicode="&#xab;" horiz-adv-x="463" 
d="M402 441v-104l-95 -72l95 -74v-103l-155 121v110zM207 441v-102l-97 -73l97 -75v-104l-157 124v108z" />
    <glyph glyph-name="logicalnot" unicode="&#xac;" horiz-adv-x="600" 
d="M42 317v96h517v-311h-98v215h-419z" />
    <glyph glyph-name="registered" unicode="&#xae;" horiz-adv-x="400" 
d="M199 729c51.333 0 95.333 -18.167 132 -54.5s55 -80.166 55 -131.499c0.666992 -51.333 -17.5 -95.333 -54.5 -132s-81.167 -55 -132.5 -55s-95.166 18.333 -131.499 55s-54.5 80.667 -54.5 132s18.167 95.166 54.5 131.499s80.166 54.5 131.499 54.5zM199 697
c-42.667 0 -79 -15 -109 -45s-45 -66.333 -45 -109s15 -79.167 45 -109.5s66.333 -45.5 109 -45.5s79 15.167 109 45.5s45 66.833 45 109.5s-15 79 -45 109s-66.333 45 -109 45zM122 646l72.998 0.000976562c60.667 0 91 -20 91 -60c0 -24 -12.333 -40.333 -37 -49
c12.667 -4.66699 21.334 -11.834 26.001 -21.501s7.33398 -25.167 8.00098 -46.5c0 -10 1.66699 -19.333 5 -28h-46c-2.66699 8 -4 17.333 -4 28c-0.666992 20.667 -4 34 -10 40s-18.667 9 -38 9h-22v-77h-46v205zM167.998 554.001h25c30.667 0 46 9.33301 46 28
c0 18 -15.333 27 -46 27h-25v-55z" />
    <glyph glyph-name="degree" unicode="&#xb0;" horiz-adv-x="400" 
d="M200 706c44.667 0 82.667 -15.667 114 -47s47 -69.333 47 -114s-15.667 -82.667 -47 -114s-69.333 -47 -114 -47s-82.667 15.667 -114 47s-47 69.333 -47 114s15.667 82.667 47 114s69.333 47 114 47zM200 624c-22 0 -40.667 -7.66699 -56 -23s-23 -34 -23 -56
c0 -21.333 7.66699 -39.833 23 -55.5s34 -23.5 56 -23.5s40.667 7.83301 56 23.5s23 34.167 23 55.5c0 22 -7.66699 40.667 -23 56s-34 23 -56 23z" />
    <glyph glyph-name="plusminus" unicode="&#xb1;" horiz-adv-x="600" 
d="M249 115v158h-207v96h207v162h102v-162h208v-96h-208v-158h-102zM42 -16v95h517v-95h-517z" />
    <glyph glyph-name="mu" unicode="&#xb5;" horiz-adv-x="574" 
d="M56 -191l-0.00195312 707.002h114v-229c0 -70.667 5 -119 15 -145c16 -44 48 -66 96 -66c22 0 40.833 4.66699 56.5 14s27.834 20.666 36.501 33.999s15.334 30.166 20.001 50.499s7.66699 38.833 9 55.5s2 35.667 2 57v229h114v-516h-97v71
c-19.333 -28 -39.833 -48.667 -61.5 -62s-48.834 -20 -81.501 -20c-29.333 0 -53.166 6.33301 -71.499 19s-30.833 25 -37.5 37v-236h-114z" />
    <glyph glyph-name="paragraph" unicode="&#xb6;" horiz-adv-x="600" 
d="M569 635l-54 -0.000976562v-817h-93v817h-111v-817h-94v431c-62.667 4.66699 -111.667 26.834 -147 66.501s-53 91.5 -53 155.5c0 74 23.333 132.667 70 176s110 65 190 65h292v-77z" />
    <glyph glyph-name="periodcentered" unicode="&#xb7;" horiz-adv-x="278" 
d="M207 358v-135h-136v135h136z" />
    <glyph glyph-name="guillemotright" unicode="&#xbb;" horiz-adv-x="463" 
d="M256 442l157 -125v-108l-157 -121v102l96 72l-96 76v104zM61 441l154 -122v-109l-154 -120v101l95 72l-95 74v104z" />
    <glyph glyph-name="divide" unicode="&#xf7;" horiz-adv-x="600" 
d="M42 210v95h517v-95h-517zM241 9v130h118v-130h-118zM241 376v130h118v-130h-118z" />
    <glyph glyph-name="florin" unicode="&#x192;" 
d="M440 438l-15.002 -80h-101l-62 -330c-13.333 -73.333 -33.166 -124.5 -59.499 -153.5s-74.166 -43.5 -143.499 -43.5c-9.33301 0 -29 1 -59 3l15 89c10.667 -0.666992 23.667 -1 39 -1c9.33301 0 18 1 26 3s14.5 4 19.5 6s9.83301 6 14.5 12s8.16699 10.333 10.5 13
s4.83301 8.66699 7.5 18s4.5 15.333 5.5 18s2.5 10 4.5 22s3.33301 19.333 4 22l62 322h-92l15 80h92l20 108c11.333 60.667 31.666 104 60.999 130s73.333 39 132 39c18.667 0 40.334 -1 65.001 -3l-17 -89c-14 1.33301 -27.333 2 -40 2c-26 0 -45 -6.16699 -57 -18.5
s-21.667 -35.5 -29 -69.5l-20 -99h102z" />
    <glyph glyph-name="afii10023" unicode="&#x401;" horiz-adv-x="630" 
d="M587 712v-105h-389v-189h361v-101h-361v-210h395v-107h-519v712h513zM484 881v-108h-111v108h111zM285 881v-108h-112v108h112z" />
    <glyph glyph-name="afii10051" unicode="&#x402;" horiz-adv-x="778" 
d="M752 160c0 -81.333 -23.5 -148.499 -70.5 -201.499s-104.833 -79.5 -173.5 -79.5c-6.66699 0 -18 0.666992 -34 2v95c44 0 80.5 17 109.5 51s43.5 79.333 43.5 136c0 57.333 -12.333 101.833 -37 133.5s-60.667 47.5 -108 47.5c-44.667 0 -79.667 -16 -105 -48
s-38 -76.333 -38 -133v-163h-125v604h-206v108h578v-108h-247v-243c37.333 54 91.333 81 162 81c78 0 139.333 -25.833 184 -77.5s67 -119.834 67 -204.501z" />
    <glyph glyph-name="afii10052" unicode="&#x403;" horiz-adv-x="563" 
d="M201 0h-125v712h483v-108h-358v-604zM431 900l-135 -143h-82l85 143h132z" />
    <glyph glyph-name="afii10053" unicode="&#x404;" horiz-adv-x="722" 
d="M682 239c-12 -78 -45.332 -140.169 -99.999 -186.502s-123.334 -69.5 -206.001 -69.5c-100.667 0 -181.334 34 -242.001 102s-91 158.333 -91 271c0 68 13 129.833 39 185.5s65 100.667 117 135s113 51.5 183 51.5c73.333 0 137.5 -19.667 192.5 -59
s89.5 -96.333 103.5 -171h-125c-10.667 38.667 -31.334 69 -62.001 91s-67.667 33 -111 33c-59.333 0 -106.166 -19.167 -140.499 -57.5s-56.166 -87.166 -65.499 -146.499h301v-101h-304c5.33301 -65.333 25.333 -119.666 60 -162.999s84 -65 148 -65
c95.333 0 154.333 50 177 150h126z" />
    <glyph glyph-name="afii10054" unicode="&#x405;" horiz-adv-x="648" 
d="M587 502l-119 -0.000976562c-7.33301 83.333 -59 125 -155 125c-42.667 0 -76 -8.83301 -100 -26.5s-36 -41.834 -36 -72.501c0 -28.667 8.83301 -48.334 26.5 -59.001s56.834 -23.667 117.501 -39c16 -4.66699 28.333 -8 37 -10c79.333 -20 133.333 -38 162 -54
c63.333 -34 95 -87 95 -159c0 -31.333 -5.33301 -59.666 -16 -84.999s-25 -46.5 -43 -63.5s-39.333 -31.167 -64 -42.5s-50.334 -19.5 -77.001 -24.5s-54.334 -7.5 -83.001 -7.5c-89.333 0 -161.666 21.333 -216.999 64s-83 105.334 -83 188.001h123
c0 -52 17 -90.5 51 -115.5s78.333 -37.5 133 -37.5c48 0 85.5 9.83301 112.5 29.5s40.5 47.167 40.5 82.5c0 22.667 -7.16699 41.167 -21.5 55.5s-29.833 24.5 -46.5 30.5s-45.667 14.333 -87 25c-4.66699 1.33301 -8.33398 2.33301 -11.001 3
c-88.667 22.667 -147 41.334 -175 56.001c-58 30 -89 76.333 -93 139v14c0 63.333 23.833 113.833 71.5 151.5s111.5 56.5 191.5 56.5c77.333 0 140.333 -18.333 189 -55s74.334 -93 77.001 -169z" />
    <glyph glyph-name="afii10055" unicode="&#x406;" horiz-adv-x="278" 
d="M202 712v-712h-126v712h126z" />
    <glyph glyph-name="afii10056" unicode="&#x407;" horiz-adv-x="278" 
d="M202 712v-712h-126v712h126zM294 880v-109h-111v109h111zM95 880v-109h-112v109h112z" />
    <glyph glyph-name="afii10057" unicode="&#x408;" horiz-adv-x="537" 
d="M470 712l-0.00292969 -501c0 -74.667 -18.5 -131.334 -55.5 -170.001s-91.5 -58 -163.5 -58c-80.667 0 -138.5 20.333 -173.5 61s-52.5 100.334 -52.5 179.001v27h119v-39c0 -40.667 7.33301 -71.834 22 -93.501s41.667 -32.5 81 -32.5c18 0 33.333 2.83301 46 8.5
s22.334 12.334 29.001 20.001s11.834 18.5 15.501 32.5s5.83398 26.5 6.50098 37.5s1 25.833 1 44.5v484h125z" />
    <glyph glyph-name="afii10058" unicode="&#x409;" horiz-adv-x="1035" 
d="M1002 221c0 -70.667 -21.167 -125.165 -63.5 -163.498s-102.166 -57.5 -179.499 -57.5h-270v604h-202l-13 -339c-4 -94.667 -23.167 -164.667 -57.5 -210s-78.833 -68 -133.5 -68c-24 0 -49 4.33301 -75 13v96c13.333 -5.33301 29.666 -8 48.999 -8s35 4.66699 47 14
s22.667 30.166 32 62.499s15 77.166 17 134.499l14 413h447v-272h145c78 0 138 -19 180 -57s63 -92 63 -162zM877 218.002c0 37.333 -11 66.667 -33 88s-52.667 32 -92 32h-138v-236h140c82 0 123 38.667 123 116z" />
    <glyph glyph-name="afii10059" unicode="&#x40a;" horiz-adv-x="1035" 
d="M482 338h-284.001v-338h-125v712h125v-271h284v271h125v-272h152c78 0 138 -19 180 -57s63 -92 63 -162c0 -70.667 -21.167 -125.167 -63.5 -163.5s-102.166 -57.5 -179.499 -57.5h-277v338zM876.999 218c0 37.333 -11 66.667 -33 88s-52.667 32 -92 32h-145v-236h147
c82 0 123 38.667 123 116z" />
    <glyph glyph-name="afii10060" unicode="&#x40b;" horiz-adv-x="778" 
d="M492 442c41.333 0 77.8291 -5.16699 109.496 -15.5s56 -23 73 -38s30.833 -32.833 41.5 -53.5s17.667 -39.5 21 -56.5s5 -34.833 5 -53.5v-225h-125v187c0 16 -0.333008 28.667 -1 38s-3.66699 21.666 -9 36.999s-12.666 27.333 -21.999 36
s-23.666 16.334 -42.999 23.001s-42.666 10 -69.999 10c-43.333 0 -87.666 -3.66699 -132.999 -11v-320h-125v604h-206v108h578v-108h-247v-176c62.667 9.33301 113.667 14 153 14z" />
    <glyph glyph-name="afii10061" unicode="&#x40c;" horiz-adv-x="685" 
d="M671 712l-285 -284l303 -428h-155l-234 341l-102 -102v-239h-124v712h124v-323l315 323h158zM491 900l-135 -143h-82l85 143h132z" />
    <glyph glyph-name="afii10062" unicode="&#x40e;" horiz-adv-x="611" 
d="M241 200l-245.999 512.001h138l172 -382l176 382h135l-277 -567c-28.667 -58.667 -59.334 -100.334 -92.001 -125.001s-69.667 -37 -111 -37c-29.333 0 -57.333 6 -84 18v105c19.333 -12 46 -18 80 -18c21.333 0 39.333 8.5 54 25.5s32.667 45.5 54 85.5z
M473.001 892.001c-5.33301 -48 -21.3311 -83.5 -47.998 -106.5s-65.334 -34.5 -116.001 -34.5s-89.334 11.5 -116.001 34.5s-42.667 58.5 -48 106.5h58c12.667 -50.667 48 -76 106 -76s93.333 25.333 106 76h58z" />
    <glyph glyph-name="afii10145" unicode="&#x40f;" horiz-adv-x="722" 
d="M524 108v604h125v-712h-226v-177h-125v177h-225v712h125v-604h326z" />
    <glyph glyph-name="afii10017" unicode="&#x410;" horiz-adv-x="667" 
d="M400 713l275 -713h-134l-68 189h-282l-70 -189h-129l275 713h133zM440 283l-106 300l-111 -300h217z" />
    <glyph glyph-name="afii10018" unicode="&#x411;" horiz-adv-x="704" 
d="M657 221c0 -70.667 -21.168 -125.167 -63.501 -163.5s-102.166 -57.5 -179.499 -57.5h-338v712h524v-108h-399v-164h213c78 0 138 -19 180 -57s63 -92 63 -162zM531.999 218c0 37.333 -11 66.667 -33 88s-52.667 32 -92 32h-206v-236h208c82 0 123 38.667 123 116z" />
    <glyph glyph-name="afii10019" unicode="&#x412;" horiz-adv-x="704" 
d="M74 712l325.001 0.000976562c74.667 0 131.834 -16.167 171.501 -48.5s59.5 -75.833 59.5 -130.5c0 -34 -9.33301 -64.5 -28 -91.5s-43.334 -46.5 -74.001 -58.5c41.333 -10 74 -30 98 -60s36 -67.667 36 -113c0 -62.667 -20.833 -113.334 -62.5 -152.001
s-95.834 -58 -162.501 -58h-363v712zM196.001 611.001v-196h170c48 0 83.333 7.5 106 22.5s34 40.167 34 75.5c0 40 -11.833 66.333 -35.5 79s-57.167 19 -100.5 19h-174zM196.001 325.001l0.00195312 -223h187c48 0 85.667 8 113 24s41 45 41 87
c0 23.333 -4.16699 42.833 -12.5 58.5s-20.333 27.167 -36 34.5s-31.834 12.333 -48.501 15s-36.334 4 -59.001 4h-185z" />
    <glyph glyph-name="afii10020" unicode="&#x413;" horiz-adv-x="563" 
d="M201 0h-125v712h483v-108h-358v-604z" />
    <glyph glyph-name="afii10021" unicode="&#x414;" horiz-adv-x="722" 
d="M711 -177h-120.999v177h-464v-177h-121v285h69c27.333 48 49.666 118 66.999 210s26 186.667 26 284v110h464v-604h80v-285zM506.001 108l0.000976562 496h-217v-43c0 -86 -7.83301 -171.5 -23.5 -256.5s-34.834 -150.5 -57.501 -196.5h298z" />
    <glyph glyph-name="afii10022" unicode="&#x415;" horiz-adv-x="630" 
d="M587 712v-105h-389v-189h361v-101h-361v-210h395v-107h-519v712h513z" />
    <glyph glyph-name="afii10024" unicode="&#x416;" horiz-adv-x="1043" 
d="M382 320l-233 -320h-156l308 410l-274 302h154l278 -320v320h125v-320l278 320h154l-274 -302l308 -410h-156l-233 320l-77 -86v-234h-125v234z" />
    <glyph glyph-name="afii10025" unicode="&#x417;" horiz-adv-x="648" 
d="M604 206c0 -24 -5.00391 -48.168 -15.0039 -72.501s-25.167 -48 -45.5 -71s-48.833 -41.833 -85.5 -56.5s-78.667 -22 -126 -22c-89.333 0 -161.666 21.333 -216.999 64s-83 105.334 -83 188.001h123c0 -52 17 -90.5 51 -115.5s78.333 -37.5 133 -37.5
c45.333 0 80 10.667 104 32s36 52.333 36 93c0 37.333 -11.833 65.666 -35.5 84.999s-56.167 29 -97.5 29h-87v97h87c32.667 0 59.834 10.333 81.501 31s32.5 47.334 32.5 80.001c0 31.333 -11 55.833 -33 73.5s-53 26.5 -93 26.5c-96 0 -147.667 -41.667 -155 -125h-119
c2.66699 76 28.334 132.333 77.001 169s111.667 55 189 55c75.333 0 137 -16.167 185 -48.5s72 -80.5 72 -144.5c0 -36 -11.667 -68.667 -35 -98s-49.666 -47.666 -78.999 -54.999v-3c40 -8 72.5 -27.833 97.5 -59.5s37.5 -69.834 37.5 -114.501z" />
    <glyph glyph-name="afii10026" unicode="&#x418;" horiz-adv-x="722" 
d="M73 0v712h125v-546l306 546h145v-712h-125v546l-306 -546h-145z" />
    <glyph glyph-name="afii10027" unicode="&#x419;" horiz-adv-x="722" 
d="M525 892c-5.33301 -48 -21.3311 -83.5 -47.998 -106.5s-65.334 -34.5 -116.001 -34.5s-89.334 11.5 -116.001 34.5s-42.667 58.5 -48 106.5h58c12.667 -50.667 48 -76 106 -76s93.333 25.333 106 76h58zM73.002 0v712h125v-546l306 546h145v-712h-125v546l-306 -546h-145
z" />
    <glyph glyph-name="afii10028" unicode="&#x41a;" horiz-adv-x="685" 
d="M671 712l-285 -284l303 -428h-155l-234 341l-102 -102v-239h-124v712h124v-323l315 323h158z" />
    <glyph glyph-name="afii10029" unicode="&#x41b;" horiz-adv-x="704" 
d="M632 0l-124.999 0.00195312v604h-220l-13 -339c-4 -94.667 -23.167 -164.667 -57.5 -210s-78.833 -68 -133.5 -68c-24 0 -49 4.33301 -75 13v96c13.333 -5.33301 29.666 -8 48.999 -8s35 4.66699 47 14s22.667 30.166 32 62.499s15 77.166 17 134.499l14 413h465v-712z
" />
    <glyph glyph-name="afii10030" unicode="&#x41c;" horiz-adv-x="889" 
d="M815 712v-712h-119v549l-198 -549h-102l-203 549v-549h-118v712h175l199 -557l192 557h174z" />
    <glyph glyph-name="afii10031" unicode="&#x41d;" horiz-adv-x="722" 
d="M649 712v-712h-125v320h-326v-320h-125v712h125v-283h326v283h125z" />
    <glyph glyph-name="afii10032" unicode="&#x41e;" horiz-adv-x="760" 
d="M382 729c100.667 0 182.499 -34.5 245.499 -103.5s94.5 -158.833 94.5 -269.5s-31.667 -200.5 -95 -269.5s-145.666 -103.5 -246.999 -103.5c-102 0 -184.5 34.333 -247.5 103s-94.5 158.667 -94.5 270c0 108 30.833 197.167 92.5 267.5s145.5 105.5 251.5 105.5z
M379.999 624c-65.333 0 -117.667 -24.165 -157 -72.498s-59 -112.833 -59 -193.5c0 -82.667 19.5 -148.334 58.5 -197.001s92.167 -73 159.5 -73c64.667 0 116.5 24.5 155.5 73.5s58.5 114.167 58.5 195.5s-19.5 146.166 -58.5 194.499s-91.5 72.5 -157.5 72.5z" />
    <glyph glyph-name="afii10033" unicode="&#x41f;" horiz-adv-x="722" 
d="M649 712v-712h-125v604h-326v-604h-125v712h576z" />
    <glyph glyph-name="afii10034" unicode="&#x420;" horiz-adv-x="667" 
d="M77 712h308.999c76.667 0 137.167 -18.167 181.5 -54.5s66.5 -90.5 66.5 -162.5c0 -68 -20.667 -121.833 -62 -161.5s-97.666 -59.5 -168.999 -59.5h-201v-274h-125v712zM201.999 608v-233h174c90.667 0 136 39 136 117c0 77.333 -49 116 -147 116h-163z" />
    <glyph glyph-name="afii10035" unicode="&#x421;" horiz-adv-x="722" 
d="M685 271c-6.66699 -87.333 -37.832 -157.164 -93.499 -209.497s-127.834 -78.5 -216.501 -78.5c-100.667 0 -181.334 34 -242.001 102s-91 158.333 -91 271c0 68 13 129.833 39 185.5s65 100.667 117 135s113 51.5 183 51.5c75.333 0 141 -20.833 197 -62.5
s89.667 -101.834 101 -180.501h-124c-8.66699 42.667 -28.667 76.167 -60 100.5s-70 36.5 -116 36.5c-47.333 0 -87.5 -13.333 -120.5 -40s-56.333 -59.5 -70 -98.5s-20.5 -81.5 -20.5 -127.5c0 -34.667 4 -67.334 12 -98.001s20 -58.834 36 -84.501
s37.833 -46.167 65.5 -61.5s59.834 -23 96.501 -23c106 0 166.667 60.667 182 182h125z" />
    <glyph glyph-name="afii10036" unicode="&#x422;" horiz-adv-x="593" 
d="M586 712v-108h-227v-604h-125v604h-227v108h579z" />
    <glyph glyph-name="afii10037" unicode="&#x423;" horiz-adv-x="611" 
d="M241 200l-245.999 512.001h138l172 -382l176 382h135l-277 -567c-28.667 -58.667 -59.334 -100.334 -92.001 -125.001s-69.667 -37 -111 -37c-29.333 0 -57.333 6 -84 18v105c19.333 -12 46 -18 80 -18c21.333 0 39.333 8.33301 54 25s32.667 45 54 85z" />
    <glyph glyph-name="afii10038" unicode="&#x424;" horiz-adv-x="807" 
d="M773 359c0 -87.333 -30.333 -155.332 -91 -203.999s-132.667 -73.667 -216 -75v-80h-125v80c-52.667 1.33301 -101.667 11.833 -147 31.5s-83.333 51 -114 94s-46 94.167 -46 153.5c0 86.667 29.5 155 88.5 205s131.833 76.333 218.5 79v69h125v-69
c88 -3.33301 161.167 -29.833 219.5 -79.5s87.5 -117.834 87.5 -204.501zM648 359.001c0 104.667 -60.667 163.333 -182 176v-347c58.667 7.33301 103.667 24 135 50s47 66.333 47 121zM341 188v347.001c-121.333 -12.667 -182 -71.334 -182 -176.001
c0 -54.667 15.667 -95 47 -121s76.333 -42.667 135 -50z" />
    <glyph glyph-name="afii10039" unicode="&#x425;" horiz-adv-x="648" 
d="M-6 0l254 369l-236 343h149l162 -252l169 252h140l-236 -343l253 -369h-152l-178 272l-181 -272h-144z" />
    <glyph glyph-name="afii10040" unicode="&#x426;" horiz-adv-x="734" 
d="M646 108h78v-285h-121v177h-533v712h125v-604h326v604h125v-604z" />
    <glyph glyph-name="afii10041" unicode="&#x427;" horiz-adv-x="685" 
d="M487 312c-76.667 -13.333 -138.998 -20 -186.998 -20c-41.333 0 -77.833 5.16699 -109.5 15.5s-56 23 -73 38s-30.833 32.833 -41.5 53.5s-17.667 39.5 -21 56.5s-5 34.833 -5 53.5v203h125v-165c0 -16 0.333008 -28.667 1 -38s3.66699 -21.666 9 -36.999
s12.666 -27.333 21.999 -36s23.666 -16.334 42.999 -23.001s42.666 -10 69.999 -10c54.667 0 110.334 5.66699 167.001 17v292h125v-712h-125v312z" />
    <glyph glyph-name="afii10042" unicode="&#x428;" horiz-adv-x="1073" 
d="M73 0v712h125v-604h276v604h125v-604h276v604h125v-712h-927z" />
    <glyph glyph-name="afii10043" unicode="&#x429;" horiz-adv-x="1085" 
d="M70 0v712h125v-604h276v604h125v-604h276v604h125v-604h78v-285h-121v177h-884z" />
    <glyph glyph-name="afii10044" unicode="&#x42a;" horiz-adv-x="813" 
d="M780 221c0 -70.667 -21.168 -125.167 -63.501 -163.5s-102.166 -57.5 -179.499 -57.5h-315v604h-214v108h339v-272h190c78 0 138 -19 180 -57s63 -92 63 -162zM654.999 218c0 37.333 -11 66.667 -33 88s-52.667 32 -92 32h-183v-236h185c82 0 123 38.667 123 116z" />
    <glyph glyph-name="afii10045" unicode="&#x42b;" horiz-adv-x="896" 
d="M614 221c0 -70.667 -21.168 -125.167 -63.501 -163.5s-102.166 -57.5 -179.499 -57.5h-295v712h125v-272h170c78 0 138 -19 180 -57s63 -92 63 -162zM488.999 218c0 37.333 -11 66.667 -33 88s-52.667 32 -92 32h-163v-236h165c82 0 123 38.667 123 116zM697.999 712.001
h125v-712h-125v712z" />
    <glyph glyph-name="afii10046" unicode="&#x42c;" horiz-adv-x="667" 
d="M634 221c0 -70.667 -21.168 -125.167 -63.501 -163.5s-102.166 -57.5 -179.499 -57.5h-315v712h125v-272h190c78 0 138 -19 180 -57s63 -92 63 -162zM508.999 218c0 37.333 -11 66.667 -33 88s-52.667 32 -92 32h-183v-236h185c82 0 123 38.667 123 116z" />
    <glyph glyph-name="afii10047" unicode="&#x42d;" horiz-adv-x="722" 
d="M680 356c0 -112.667 -30.332 -202.998 -90.999 -270.998s-141.334 -102 -242.001 -102c-82.667 0 -151.334 23.167 -206.001 69.5s-88 108.5 -100 186.5h126c22.667 -100 81.667 -150 177 -150c64 0 113.333 21.667 148 65s54.667 97.666 60 162.999h-304v101h301
c-9.33301 59.333 -31.166 108.166 -65.499 146.499s-81.166 57.5 -140.499 57.5c-43.333 0 -80.333 -11 -111 -33s-51.334 -52.333 -62.001 -91h-125c14 74.667 48.5 131.667 103.5 171s119.167 59 192.5 59c70 0 131 -17.167 183 -51.5s91 -79.333 117 -135
s39 -117.5 39 -185.5z" />
    <glyph glyph-name="afii10048" unicode="&#x42e;" horiz-adv-x="1018" 
d="M653 729c94.667 0 172.832 -34.665 234.499 -103.998s92.5 -159 92.5 -269s-31 -199.667 -93 -269s-140.667 -104 -236 -104c-91.333 0 -167.166 31.167 -227.499 93.5s-93.833 144.166 -100.5 245.499h-125v-322h-125v712h125v-283h129
c14 89.333 49.833 161.666 107.5 216.999s130.5 83 218.5 83zM650.998 624.002c-60 0 -108.832 -24.332 -146.499 -72.999s-56.5 -113 -56.5 -193c0 -82 19 -147.5 57 -196.5s87.333 -73.5 148 -73.5c59.333 0 107.666 24.667 144.999 74s56 114.333 56 195
c0 81.333 -18.5 146.166 -55.5 194.499s-86.167 72.5 -147.5 72.5z" />
    <glyph glyph-name="afii10049" unicode="&#x42f;" horiz-adv-x="685" 
d="M612 0h-125v294h-142l-202 -294h-156l219 306c-58.667 18 -99 44.667 -121 80s-33 78.333 -33 129c0 60 20.667 107.833 62 143.5s99.333 53.5 174 53.5h324v-712zM487 389v221h-186c-42.667 0 -74 -8.5 -94 -25.5s-30 -43.833 -30 -80.5c0 -76.667 40.667 -115 122 -115
h188z" />
    <glyph glyph-name="afii10065" unicode="&#x430;" 
d="M55 357c12 116.667 87.3301 174.999 225.997 174.999c64.667 0 116.167 -12.667 154.5 -38s57.5 -64.666 57.5 -117.999v-262c0 -14.667 1.83301 -24.667 5.5 -30s10.834 -8 21.501 -8c8 0 16.667 0.666992 26 2v-80c-29.333 -7.33301 -54 -11 -74 -11
c-48.667 0 -76.667 20.667 -84 62c-43.333 -41.333 -103.666 -62 -180.999 -62c-53.333 0 -95.666 13.833 -126.999 41.5s-47 65.167 -47 112.5c0 14.667 1.66699 28.334 5 41.001s7.16602 23.667 11.499 33s11.333 18 21 26l24 20c6.33301 5.33301 16.666 10.333 30.999 15
l32 10.5c7 2.33301 19.167 4.83301 36.5 7.5s28.833 4.5 34.5 5.5s17.5 2.5 35.5 4.5c40.667 5.33301 68.334 9.83301 83.001 13.5s24.667 9.16699 30 16.5c4.66699 5.33301 7 17.666 7 36.999c0 52 -35.333 78 -106 78c-37.333 0 -64.666 -7 -81.999 -21
s-28.333 -37.667 -33 -71h-108zM382.997 258.999c-8.66699 -4.66699 -18.666 -8.83203 -29.999 -12.499s-20.5 -6 -27.5 -7l-33 -4.5c-15 -2 -24.833 -3.33301 -29.5 -4c-14 -2 -25 -3.83301 -33 -5.5s-17.833 -4.5 -29.5 -8.5s-20.667 -8.83301 -27 -14.5
s-11.833 -13.334 -16.5 -23.001s-7 -21.167 -7 -34.5c0 -24.667 8.16699 -43.667 24.5 -57s39.166 -20 68.499 -20c50.667 0 89.667 13.667 117 41c15.333 15.333 23 45 23 89v61z" />
    <glyph glyph-name="afii10066" unicode="&#x431;" horiz-adv-x="593" 
d="M556 252c0 -80.667 -22.6689 -145.167 -68.002 -193.5s-105.666 -72.5 -180.999 -72.5c-116 0 -194 47.667 -234 143c-17.333 40 -26 94.333 -26 163c0 135.333 21.667 236.333 65 303c22.667 34.667 50.334 60.5 83.001 77.5s74 27.167 124 30.5
c6 0.666992 14.167 1.33398 24.5 2.00098s17.666 1.16699 21.999 1.5s10 1 17 2s12 2 15 3s6.5 2.33301 10.5 4s7 3.83398 9 6.50098s4 5.66699 6 9h114c-2 -12 -4.83301 -23 -8.5 -33s-7.5 -18.667 -11.5 -26s-9.83301 -14 -17.5 -20l-19 -15
c-5 -4 -12.833 -7.66699 -23.5 -11s-19 -5.83301 -25 -7.5s-15.667 -3.33398 -29 -5.00098s-23.166 -2.83398 -29.499 -3.50098s-17.333 -1.5 -33 -2.5s-26.834 -1.83301 -33.501 -2.5c-92 -7.33301 -152.333 -72 -181 -194h3c22 35.333 47.667 61.833 77 79.5
s68 26.5 116 26.5c66.667 0 122.334 -24.333 167.001 -73s67 -112.667 67 -192zM441.998 252c0 52.667 -12.833 95 -38.5 127s-59.5 48 -101.5 48s-75.833 -15.833 -101.5 -47.5s-38.5 -74.167 -38.5 -127.5s12.833 -96 38.5 -128s59.5 -48 101.5 -48s75.833 16 101.5 48
s38.5 74.667 38.5 128z" />
    <glyph glyph-name="afii10067" unicode="&#x432;" 
d="M521 146c0 -46.667 -16.5 -82.667 -49.5 -108s-79.833 -38 -140.5 -38h-271v516h285c48 0 85.5 -11 112.5 -33s40.5 -53 40.5 -93c0 -27.333 -6 -49.333 -18 -66s-30.667 -31 -56 -43v-2c64.667 -16.667 97 -61 97 -133zM331 228l-157 -0.000976562v-142h157
c51.333 0 77 23.333 77 70c0 22.667 -6.66699 40.334 -20 53.001s-32.333 19 -57 19zM316 429.999h-142v-119h145c44 0 66 20.667 66 62c0 38 -23 57 -69 57z" />
    <glyph glyph-name="afii10068" unicode="&#x433;" horiz-adv-x="426" 
d="M421 426h-247v-426h-114v516h361v-90z" />
    <glyph glyph-name="afii10069" unicode="&#x434;" horiz-adv-x="600" 
d="M590 -164h-108v164h-367v-164h-108v254h65c40.667 95.333 61 218 61 368v58h388v-426h69v-254zM409 90v338h-167v-35c0 -54 -5.66699 -110.5 -17 -169.5s-23.333 -103.5 -36 -133.5h220z" />
    <glyph glyph-name="afii10070" unicode="&#x435;" 
d="M522 161c-12.667 -56 -40.167 -99.668 -82.5 -131.001s-92.833 -47 -151.5 -47c-78 0 -139.833 25.167 -185.5 75.5s-68.5 114.833 -68.5 193.5c0 80.667 23.5 147.334 70.5 200.001s106.833 79 179.5 79c75.333 0 135 -25.833 179 -77.5s66 -122.167 66 -211.5v-12h-381
c1.33301 -52 14.333 -92.167 39 -120.5s59 -42.5 103 -42.5c31.333 0 56.833 7.5 76.5 22.5s35.167 38.833 46.5 71.5h109zM415 305.999c-3.33301 43.333 -16.833 77.5 -40.5 102.5s-54.167 37.5 -91.5 37.5s-67.5 -12 -90.5 -36s-37.167 -58.667 -42.5 -104h265z" />
    <glyph glyph-name="afii10072" unicode="&#x436;" horiz-adv-x="778" 
d="M787 0h-137l-158 224l-48 -54v-170h-110v170l-48 54l-158 -224h-137l222 296l-197 220h138l177 -218h3v218h110v-218h3l177 218h138l-197 -220z" />
    <glyph glyph-name="afii10073" unicode="&#x437;" horiz-adv-x="519" 
d="M482 153c0 -52.667 -21.832 -93.666 -65.499 -122.999s-95.167 -44 -154.5 -44c-73.333 0 -129.833 15.5 -169.5 46.5s-60.834 73.833 -63.501 128.5h115c8 -58 47 -87 117 -87c32.667 0 58.667 6.83301 78 20.5s29 32.5 29 56.5c0 50.667 -33.667 76 -101 76h-64v84h46
c68.667 0 103 22.667 103 68c0 43.333 -31.333 65 -94 65c-54.667 0 -87.667 -25.667 -99 -77h-115c10 109.333 85 164 225 164c58 0 105.167 -11.333 141.5 -34s54.5 -57.667 54.5 -105c0 -28 -8.16699 -52 -24.5 -72s-35.833 -32.333 -58.5 -37v-2
c27.333 -5.33301 50.833 -18.833 70.5 -40.5s29.5 -50.834 29.5 -87.501z" />
    <glyph glyph-name="afii10074" unicode="&#x438;" horiz-adv-x="574" 
d="M204 0h-144v516h114v-376h3l193 376h144v-516h-114v376h-3z" />
    <glyph glyph-name="afii10075" unicode="&#x439;" horiz-adv-x="574" 
d="M451 729c-5.33301 -48 -21.3311 -83.5 -47.998 -106.5s-65.334 -34.5 -116.001 -34.5s-89.334 11.5 -116.001 34.5s-42.667 58.5 -48 106.5h58c12.667 -50.667 48 -76 106 -76s93.333 25.333 106 76h58zM204.002 0h-144v516h114v-376h3l193 376h144v-516h-114v376h-3z
" />
    <glyph glyph-name="afii10076" unicode="&#x43a;" horiz-adv-x="537" 
d="M542 0h-138l-162 231l-68 -71v-160h-114v516h114v-229l206 229h139l-201 -207z" />
    <glyph glyph-name="afii10077" unicode="&#x43b;" horiz-adv-x="574" 
d="M516 0h-114.001v426h-158l-7 -226c-2 -67.333 -16.5 -119.5 -43.5 -156.5s-63.833 -55.5 -110.5 -55.5c-28.667 0 -52 3.66699 -70 11v89c6.66699 -3.33301 20.334 -5 41.001 -5c45.333 0 69.333 42.667 72 128l9 305h381v-516z" />
    <glyph glyph-name="afii10078" unicode="&#x43c;" horiz-adv-x="704" 
d="M170 0h-110v516h150l144 -410h2l139 410h150v-516h-110v343h-2l-123 -343h-115l-123 343h-2v-343z" />
    <glyph glyph-name="afii10079" unicode="&#x43d;" horiz-adv-x="574" 
d="M174 0h-114v516h114v-202h226v202h114v-516h-114v224h-226v-224z" />
    <glyph glyph-name="afii10080" unicode="&#x43e;" horiz-adv-x="593" 
d="M299 531c78.667 0 141.332 -24.667 187.999 -74s70 -115.666 70 -198.999c0 -84 -23.167 -150.667 -69.5 -200s-109.166 -74 -188.499 -74c-80.667 0 -144.667 24.667 -192 74s-71 116 -71 200c0 83.333 23.833 149.666 71.5 198.999s111.5 74 191.5 74zM296.998 441
c-45.333 0 -81.001 -16.332 -107.001 -48.999s-39 -77.334 -39 -134.001c0 -58 13 -103.333 39 -136s62 -49 108 -49c44.667 0 79.834 16.5 105.501 49.5s38.5 78.5 38.5 136.5c0 56.667 -12.833 101.167 -38.5 133.5s-61.167 48.5 -106.5 48.5z" />
    <glyph glyph-name="afii10081" unicode="&#x43f;" horiz-adv-x="574" 
d="M174 0h-114v516h454v-516h-114v426h-226v-426z" />
    <glyph glyph-name="afii10082" unicode="&#x440;" horiz-adv-x="611" 
d="M169 516v-69c34.667 56 90.667 84 168 84c71.333 0 128.333 -25 171 -75s64 -116.667 64 -200c0 -81.333 -20.833 -146.5 -62.5 -195.5s-97.167 -73.5 -166.5 -73.5c-73.333 0 -129.333 27 -168 81v-259h-113v707h107zM314 439c-44.667 0 -79.666 -16 -104.999 -48
s-38 -76.333 -38 -133c0 -56 12.833 -100 38.5 -132s61.167 -48 106.5 -48c43.333 0 77.666 16 102.999 48s38 75.333 38 130c0 56 -12.833 100.5 -38.5 133.5s-60.5 49.5 -104.5 49.5z" />
    <glyph glyph-name="afii10083" unicode="&#x441;" 
d="M528 195c-8 -63.333 -33.3311 -113.833 -75.998 -151.5s-96.334 -56.5 -161.001 -56.5c-77.333 0 -139 24.5 -185 73.5s-69 113.167 -69 192.5c0 85.333 23.167 153.166 69.5 203.499s108.833 75.5 187.5 75.5c66 0 119.167 -16.667 159.5 -50
s63.833 -79.666 70.5 -138.999h-113c-6.66699 32.667 -20 57.667 -40 75s-45.333 26 -76 26c-44 0 -78.667 -16.5 -104 -49.5s-38 -78.167 -38 -135.5s12.167 -102 36.5 -134s58.166 -48 101.499 -48c34 0 61.833 10.167 83.5 30.5s35.5 49.5 41.5 87.5h112z" />
    <glyph glyph-name="afii10084" unicode="&#x442;" horiz-adv-x="464" 
d="M459 426h-170v-426h-114v426h-170v90h454v-90z" />
    <glyph glyph-name="afii10085" unicode="&#x443;" horiz-adv-x="519" 
d="M515 516l-191 -506.002c-2 -4.66699 -5.66699 -14.5 -11 -29.5l-11 -30.5c-2 -5.33301 -5.83301 -14.666 -11.5 -27.999s-10.167 -22.666 -13.5 -27.999l-15 -24c-6.66699 -10.667 -12.834 -18.334 -18.501 -23.001l-21 -17.5c-8.33301 -7 -16.833 -12 -25.5 -15
s-18.5 -5.66699 -29.5 -8s-22.833 -3.5 -35.5 -3.5c-21.333 0 -47.666 2 -78.999 6v96c24 -4.66699 44 -7 60 -7c8 0 15.333 1.16699 22 3.5s12.667 6.33301 18 12s10 11 14 16s7.83301 12 11.5 21l8.5 21c2 5 4.66699 12.833 8 23.5s5.33301 17.334 6 20.001l-198 501h125
l138 -380l130 380h119z" />
    <glyph glyph-name="afii10086" unicode="&#x444;" horiz-adv-x="826" 
d="M790 266c0 -51.333 -6.49609 -97.166 -19.4961 -137.499s-35.833 -74.166 -68.5 -101.499s-73.334 -41 -122.001 -41c-18.667 0 -38.667 4.83301 -60 14.5s-37 20.834 -47 33.501h-3v-225h-114v225h-3c-10 -12.667 -25.667 -23.834 -47 -33.501s-41.333 -14.5 -60 -14.5
c-48.667 0 -89.334 13.667 -122.001 41s-55.5 61.166 -68.5 101.499s-19.5 86.166 -19.5 137.499c0 81.333 18.333 145.833 55 193.5s86 71.5 148 71.5c21.333 0 43.166 -5.33301 65.499 -16s38.5 -23 48.5 -37h3v234h114v-234h3c10 14 26.167 26.333 48.5 37
s44.166 16 65.499 16c62 0 111.333 -23.833 148 -71.5s55 -112.167 55 -193.5zM676.004 264c0 119.333 -37.666 179 -112.999 179c-20 0 -38.833 -4.83301 -56.5 -14.5s-29.834 -25.167 -36.501 -46.5v-251c3.33301 -16 13 -29.5 29 -40.5s35.667 -16.5 59 -16.5
c42 0 72.167 18 90.5 54s27.5 81.333 27.5 136zM356.005 131l0.000976562 251c-6.66699 21.333 -18.834 36.833 -36.501 46.5s-36.5 14.5 -56.5 14.5c-75.333 0 -113 -59.667 -113 -179c0 -54.667 9.16699 -100 27.5 -136s48.5 -54 90.5 -54c23.333 0 43 5.5 59 16.5
s25.667 24.5 29 40.5z" />
    <glyph glyph-name="afii10087" unicode="&#x445;" horiz-adv-x="537" 
d="M198 271l-179 245h138l108 -159l113 159h132l-175 -239l197 -277h-137l-131 190l-127 -190h-134z" />
    <glyph glyph-name="afii10088" unicode="&#x446;" horiz-adv-x="590" 
d="M514 90h69v-254h-110v164h-413v516h114v-426h226v426h114v-426z" />
    <glyph glyph-name="afii10089" unicode="&#x447;" horiz-adv-x="537" 
d="M367 219c-57.333 -18 -113.333 -27 -168 -27c-52 0 -92.167 13.167 -120.5 39.5s-42.5 64.5 -42.5 114.5v170h114v-130c0 -65.333 31.333 -98 94 -98c42.667 0 83.667 8.33301 123 25v203h114v-516h-114v219z" />
    <glyph glyph-name="afii10090" unicode="&#x448;" horiz-adv-x="814" 
d="M60 0v516h114v-426h176v426h114v-426h176v426h114v-516h-694z" />
    <glyph glyph-name="afii10091" unicode="&#x449;" horiz-adv-x="830" 
d="M60 0v516h114v-426h176v426h114v-426h176v426h114v-426h69v-254h-110v164h-653z" />
    <glyph glyph-name="afii10092" unicode="&#x44a;" horiz-adv-x="630" 
d="M600 165c0 -51.333 -15.333 -91.667 -46 -121s-73.667 -44 -129 -44h-272v426h-147v90h261v-187h157c56 0 99.333 -14.5 130 -43.5s46 -69.167 46 -120.5zM486 162.999c0 23.333 -6.66699 42 -20 56s-32 21 -56 21h-143v-151h145c24.667 0 43.167 6.83301 55.5 20.5
s18.5 31.5 18.5 53.5z" />
    <glyph glyph-name="afii10093" unicode="&#x44b;" horiz-adv-x="722" 
d="M553 516h114v-516h-114v516zM482 165c0 -51.333 -15.333 -91.667 -46 -121s-73.667 -44 -129 -44h-252v516h114v-187h137c56 0 99.333 -14.5 130 -43.5s46 -69.167 46 -120.5zM368 162.999c0 23.333 -6.66699 42 -20 56s-32 21 -56 21h-123v-151h125
c24.667 0 43.167 6.83301 55.5 20.5s18.5 31.5 18.5 53.5z" />
    <glyph glyph-name="afii10094" unicode="&#x44c;" horiz-adv-x="537" 
d="M507 165c0 -51.333 -15.333 -91.667 -46 -121s-73.667 -44 -129 -44h-272v516h114v-187h157c56 0 99.333 -14.5 130 -43.5s46 -69.167 46 -120.5zM393 162.999c0 23.333 -6.66699 42 -20 56s-32 21 -56 21h-143v-151h145c24.667 0 43.167 6.83301 55.5 20.5
s18.5 31.5 18.5 53.5z" />
    <glyph glyph-name="afii10095" unicode="&#x44d;" 
d="M520 253c0 -79.333 -23.001 -143.501 -69.001 -192.501s-107.667 -73.5 -185 -73.5c-60.667 0 -112 17 -154 51s-68.667 80 -80 138h113c16.667 -66 57 -99 121 -99c38.667 0 69.834 13 93.501 39s37.834 62.333 42.501 109h-192v80h191
c-6.66699 44 -22 78.167 -46 102.5s-55 36.5 -93 36.5c-58.667 0 -96.334 -29 -113.001 -87h-114c9.33301 55.333 33.833 98.333 73.5 129s91.167 46 154.5 46c78.667 0 141.167 -25.167 187.5 -75.5s69.5 -118.166 69.5 -203.499z" />
    <glyph glyph-name="afii10096" unicode="&#x44e;" horiz-adv-x="802" 
d="M518 531c76 0 136.334 -24.668 181.001 -74.001s67 -115.666 67 -198.999c0 -84 -22.333 -150.667 -67 -200s-105 -74 -181 -74c-72 0 -130.5 21.667 -175.5 65s-70.167 102.333 -75.5 177h-93v-226h-114v516h114v-204h95c9.33301 68 36.166 121.5 80.499 160.5
s100.5 58.5 168.5 58.5zM516.001 440.999c-42.667 0 -75.999 -16.332 -99.999 -48.999s-36 -77.334 -36 -134.001c0 -58 12 -103.333 36 -136s57.667 -49 101 -49c42 0 74.833 16.5 98.5 49.5s35.5 78.5 35.5 136.5c0 56.667 -11.833 101.167 -35.5 133.5
s-56.834 48.5 -99.501 48.5z" />
    <glyph glyph-name="afii10097" unicode="&#x44f;" 
d="M496 0l-114 -0.000976562v208h-97l-159 -208h-134l172 221c-42 13.333 -71 32.833 -87 58.5s-24 56.834 -24 93.501c0 45.333 14.667 80.5 44 105.5s71.333 37.5 126 37.5h273v-516zM382 290.999v138h-138c-51.333 0 -77 -22 -77 -66c0 -48 25.333 -72 76 -72h139z" />
    <glyph glyph-name="afii10071" unicode="&#x451;" 
d="M433 712v-109h-111v109h111zM234 712v-109h-111v109h111zM522 161c-12.667 -56 -40.167 -99.668 -82.5 -131.001s-92.833 -47 -151.5 -47c-78 0 -139.833 25.167 -185.5 75.5s-68.5 114.833 -68.5 193.5c0 80.667 23.5 147.334 70.5 200.001s106.833 79 179.5 79
c75.333 0 135 -25.833 179 -77.5s66 -122.167 66 -211.5v-12h-381c1.33301 -52 14.333 -92.167 39 -120.5s59 -42.5 103 -42.5c31.333 0 56.833 7.5 76.5 22.5s35.167 38.833 46.5 71.5h109zM415 305.999c-3.33301 43.333 -16.833 77.5 -40.5 102.5s-54.167 37.5 -91.5 37.5
s-67.5 -12 -90.5 -36s-37.167 -58.667 -42.5 -104h265z" />
    <glyph glyph-name="afii10099" unicode="&#x452;" horiz-adv-x="574" 
d="M521 103c0 -81.333 -28.667 -149.833 -86 -205.5s-126.666 -85.167 -207.999 -88.5v99c55.333 6.66699 99.166 27.667 131.499 63s48.5 79 48.5 131v63c0 77.333 -33 116 -99 116c-37.333 0 -67.833 -12.667 -91.5 -38s-35.5 -58 -35.5 -98v-145h-114v431h-52v85h52v196
h114v-196h227v-85h-227v-142h2c36 54.667 89.333 82 160 82c55.333 0 98.833 -15.667 130.5 -47s47.5 -74.333 47.5 -129v-92z" />
    <glyph glyph-name="afii10100" unicode="&#x453;" horiz-adv-x="426" 
d="M421 426h-247v-426h-114v516h361v-90zM354 727l-134 -143h-82l85 143h131z" />
    <glyph glyph-name="afii10101" unicode="&#x454;" 
d="M525 176c-11.333 -58 -38.001 -103.999 -80.001 -137.999s-93.333 -51 -154 -51c-77.333 0 -139 24.5 -185 73.5s-69 113.167 -69 192.5c0 85.333 23.167 153.166 69.5 203.499s108.833 75.5 187.5 75.5c63.333 0 114.833 -15.333 154.5 -46s64.167 -73.667 73.5 -129
h-114c-16.667 58 -54.334 87 -113.001 87c-38 0 -69 -12.167 -93 -36.5s-39.333 -58.5 -46 -102.5h196v-80h-197c4.66699 -46.667 18.834 -83 42.501 -109s54.834 -39 93.501 -39c64 0 104.333 33 121 99h113z" />
    <glyph glyph-name="afii10102" unicode="&#x455;" horiz-adv-x="519" 
d="M469 366l-109.001 -0.00390625c-6.66699 54.667 -44 82 -112 82c-29.333 0 -52 -5.33301 -68 -16s-24 -25.334 -24 -44.001c0 -6 0.5 -11.333 1.5 -16s3 -8.83398 6 -12.501l8 -9.5c2.33301 -2.66699 6.5 -5.33398 12.5 -8.00098l14.5 -6.5
c3.66699 -1.66699 9.83398 -3.66699 18.501 -6l20.5 -5.5c5 -1.33301 13.167 -3.16602 24.5 -5.49902s20 -4.16602 26 -5.49902c26 -6 44.833 -10.5 56.5 -13.5s28.667 -9 51 -18s38.833 -18.333 49.5 -28s20.5 -23 29.5 -40s13.5 -36.5 13.5 -58.5
c0 -52 -20.333 -93.333 -61 -124s-95.334 -46 -164.001 -46c-73.333 0 -129.666 15.333 -168.999 46s-60.333 75.334 -63 134.001h109c6 -64.667 47.667 -97 125 -97c33.333 0 60.166 6.83301 80.499 20.5s30.5 31.834 30.5 54.501c0 11.333 -2.5 21 -7.5 29
s-13.167 14.833 -24.5 20.5s-22.166 10 -32.499 13s-24.166 6.5 -41.499 10.5c-7.33301 2 -13 3.33301 -17 4c-73.333 18 -120 32 -140 42c-47.333 22.667 -71 60.334 -71 113.001c0 48.667 18.667 86.834 56 114.501s89 41.5 155 41.5
c63.333 0 115.166 -13.667 155.499 -41s60.5 -68.666 60.5 -123.999z" />
    <glyph glyph-name="afii10103" unicode="&#x456;" horiz-adv-x="241" 
d="M177 715v-112h-114v112h114zM177 516v-516h-114v516h114z" />
    <glyph glyph-name="afii10104" unicode="&#x457;" horiz-adv-x="241" 
d="M177 516v-516h-114v516h114zM276 712v-109h-112v109h112zM77 712v-109h-112v109h112z" />
    <glyph glyph-name="afii10105" unicode="&#x458;" horiz-adv-x="241" 
d="M181 516v-542.999c0 -60.667 -11.167 -104.334 -33.5 -131.001s-61.833 -40 -118.5 -40c-10 0 -26 1 -48 3v93c17.333 -1.33301 26.333 -2 27 -2c21.333 0 36.5 3 45.5 9s13.5 18.667 13.5 38v573h114zM181 716.001v-113h-114v113h114z" />
    <glyph glyph-name="afii10106" unicode="&#x459;" horiz-adv-x="817" 
d="M787 160c0 -51.333 -15.168 -90.832 -45.501 -118.499s-73.5 -41.5 -129.5 -41.5h-236v426h-135l-7 -226c-2 -67.333 -16.5 -119.5 -43.5 -156.5s-63.833 -55.5 -110.5 -55.5c-28 0 -51.333 3.66699 -70 11v89c6.66699 -3.33301 20.334 -5 41.001 -5
c45.333 0 69.333 42.667 72 128l9 305h358v-197h121c56.667 0 100.167 -13.833 130.5 -41.5s45.5 -66.834 45.5 -117.501zM672.999 158.001c0 22.667 -6.66699 40.333 -20 53s-32 19 -56 19h-107v-141h109c49.333 0 74 23 74 69z" />
    <glyph glyph-name="afii10107" unicode="&#x45a;" horiz-adv-x="817" 
d="M787 160c0 -51.333 -15.167 -90.832 -45.5 -118.499s-73.5 -41.5 -129.5 -41.5h-242v230h-196v-230h-114v516h114v-196h196v196h114v-197h127c56.667 0 100.167 -13.833 130.5 -41.5s45.5 -66.834 45.5 -117.501zM673 158.001c0 22.667 -6.66699 40.333 -20 53
s-32 19 -56 19h-113v-141h115c49.333 0 74 23 74 69z" />
    <glyph glyph-name="afii10108" unicode="&#x45b;" horiz-adv-x="574" 
d="M521 0h-114v165c0 77.333 -33 116 -99 116c-37.333 0 -67.833 -12.667 -91.5 -38s-35.5 -58 -35.5 -98v-145h-114v431h-52v85h52v196h114v-196h227v-85h-227v-142h2c36 54.667 89.333 82 160 82c55.333 0 98.833 -15.667 130.5 -47s47.5 -74.333 47.5 -129v-195z" />
    <glyph glyph-name="afii10109" unicode="&#x45c;" horiz-adv-x="537" 
d="M417 727l-134 -143h-82l85 143h131zM542 0h-138l-162 231l-68 -71v-160h-114v516h114v-229l206 229h139l-201 -207z" />
    <glyph glyph-name="afii10110" unicode="&#x45e;" horiz-adv-x="519" 
d="M429 729c-5.33301 -48 -21.3311 -83.5 -47.998 -106.5s-65.334 -34.5 -116.001 -34.5s-89.334 11.5 -116.001 34.5s-42.667 58.5 -48 106.5h58c12.667 -50.667 48 -76 106 -76s93.333 25.333 106 76h58zM515.002 516l-191.002 -506.001l-11 -29.5
c-5.33301 -14.333 -9.16602 -24.333 -11.499 -30l-11.5 -28c-5.33301 -13 -9.66602 -22.5 -12.999 -28.5s-8.33301 -14 -15 -24s-12.834 -17.5 -18.501 -22.5l-21 -18c-8.33301 -7 -16.833 -12 -25.5 -15s-18.5 -5.66699 -29.5 -8s-22.833 -3.5 -35.5 -3.5
c-21.333 0 -47.666 2 -78.999 6v96c24 -4.66699 44 -7 60 -7c8 0 15.333 1.16699 22 3.5s12.667 6.33301 18 12s10 11 14 16s7.83301 12 11.5 21l8.5 21c2 5 4.66699 12.833 8 23.5s5.33301 17.334 6 20.001l-198 501h125l138 -380l130 380h119z" />
    <glyph glyph-name="afii10193" unicode="&#x45f;" horiz-adv-x="574" 
d="M400 90v426h114v-516h-171v-164h-114v164h-169v516h114v-426h226z" />
    <glyph glyph-name="afii10050" unicode="&#x490;" horiz-adv-x="563" 
d="M559 869v-265h-358v-604h-125v712h358v157h125z" />
    <glyph glyph-name="afii10098" unicode="&#x491;" horiz-adv-x="426" 
d="M423 670v-244h-249v-426h-114v516h249v154h114z" />
    <glyph glyph-name="endash" unicode="&#x2013;" horiz-adv-x="500" 
d="M500 327v-104h-500v104h500z" />
    <glyph glyph-name="emdash" unicode="&#x2014;" horiz-adv-x="1000" 
d="M1000 327v-104h-1000v104h1000z" />
    <glyph glyph-name="quoteleft" unicode="&#x2018;" horiz-adv-x="278" 
d="M67 437v109.999c0 102.667 45.667 162 137 178v-59c-41.333 -13.333 -63 -45.666 -65 -96.999h65v-132h-137z" />
    <glyph glyph-name="quoteright" unicode="&#x2019;" horiz-adv-x="278" 
d="M210 712v-109.999c0 -102.667 -45.667 -162 -137 -178v59c41.333 13.333 63 45.666 65 96.999h-65v132h137z" />
    <glyph glyph-name="quotesinglbase" unicode="&#x201a;" horiz-adv-x="278" 
d="M202 128l-0.000976562 -100c0 -103.333 -41.667 -164.333 -125 -183v56c20.667 8.66699 35.834 20.667 45.501 36s15.167 36.333 16.5 63h-62v128h125z" />
    <glyph glyph-name="quotedblleft" unicode="&#x201c;" horiz-adv-x="444" 
d="M59 441l-0.000976562 123c0 42 12.333 77.5 37 106.5s54.334 46.833 89.001 53.5v-57c-40.667 -15.333 -61 -48 -61 -98h61v-128h-126zM255.999 441l-0.000976562 123c0 42 12.333 77.5 37 106.5s54.334 46.833 89.001 53.5v-57c-40.667 -15.333 -61 -48 -61 -98h61v-128
h-126z" />
    <glyph glyph-name="quotedblright" unicode="&#x201d;" horiz-adv-x="444" 
d="M383 712l0.000976562 -123c0 -42 -12.333 -77.5 -37 -106.5s-54.334 -46.833 -89.001 -53.5v57c40.667 15.333 61 48 61 98h-61v128h126zM186.001 712l0.000976562 -123c0 -42 -12.333 -77.5 -37 -106.5s-54.334 -46.833 -89.001 -53.5v57c40.667 15.333 61 48 61 98h-61
v128h126z" />
    <glyph glyph-name="quotedblbase" unicode="&#x201e;" horiz-adv-x="444" 
d="M384 128l0.000976562 -123c0 -42 -12.333 -77.5 -37 -106.5s-54.334 -46.833 -89.001 -53.5v57c40.667 15.333 61 48 61 98h-61v128h126zM187.001 128l0.000976562 -123c0 -42 -12.333 -77.5 -37 -106.5s-54.334 -46.833 -89.001 -53.5v57c40.667 15.333 61 48 61 98h-61
v128h126z" />
    <glyph glyph-name="dagger" unicode="&#x2020;" 
d="M523 511v-97h-191v-574h-110v574h-189v97h189v201h110v-201h191z" />
    <glyph glyph-name="daggerdbl" unicode="&#x2021;" 
d="M523 518v-96h-192v-292h192v-96h-192v-193h-108v193h-190v96h190v292h-190v96h190v194h108v-194h192z" />
    <glyph glyph-name="bullet" unicode="&#x2022;" horiz-adv-x="500" 
d="M250 534c49.333 0 91.333 -17.333 126 -52s52 -76.667 52 -126s-17.333 -91.333 -52 -126s-76.667 -52 -126 -52s-91.333 17.333 -126 52s-52 76.667 -52 126s17.333 91.333 52 126s76.667 52 126 52z" />
    <glyph glyph-name="ellipsis" unicode="&#x2026;" horiz-adv-x="1000" 
d="M108 0v130h117v-130h-117zM441 0v130h117v-130h-117zM774 0v130h118v-130h-118z" />
    <glyph glyph-name="perthousand" unicode="&#x2030;" horiz-adv-x="1148" 
d="M657 725l-453 -756h-74l455 756h72zM579 328c46 0 81.501 -14.332 106.501 -42.999s37.5 -69.334 37.5 -122.001c0 -56.667 -12.333 -100 -37 -130s-60.334 -45 -107.001 -45c-98 0 -147 56 -147 168c0 56.667 12.5 99.5 37.5 128.5s61.5 43.5 109.5 43.5z
M924.001 329.001c46.667 0 82.5 -14.333 107.5 -43s37.5 -70 37.5 -124c0 -56 -12.5 -99 -37.5 -129s-60.833 -45 -107.5 -45c-97.333 0 -146 56 -146 168c0 56 12.5 98.833 37.5 128.5s61.167 44.5 108.5 44.5zM225.001 707.001c47.333 0 83.335 -14.5 108.002 -43.5
s37 -70.833 37 -125.5s-12.833 -97 -38.5 -127s-61.834 -45 -108.501 -45s-82.334 14.5 -107.001 43.5s-37 70.833 -37 125.5c0 55.333 12.5 97.833 37.5 127.5s61.167 44.5 108.5 44.5zM578.003 269.001c-43.333 0 -65.001 -37.668 -65.001 -113.001
c0 -37.333 5.33301 -64.666 16 -81.999s27.334 -26 50.001 -26c41.333 0 62 37.667 62 113c0 72 -21 108 -63 108zM923.002 269c-43.333 0 -65 -37.667 -65 -113c0 -72 22 -108 66 -108c42 0 63 37.333 63 112c0 72.667 -21.333 109 -64 109zM224.002 647
c-42.667 0 -64 -38.333 -64 -115c0 -70 21.333 -105 64 -105s64 36.667 64 110s-21.333 110 -64 110z" />
    <glyph glyph-name="guilsinglleft" unicode="&#x2039;" horiz-adv-x="259" 
d="M197 440v-103l-94 -72l94 -74v-104l-154 123v109z" />
    <glyph glyph-name="guilsinglright" unicode="&#x203a;" horiz-adv-x="259" 
d="M61 441l154 -122v-111l-154 -119v102l95 72l-95 74v104z" />
    <glyph glyph-name="afii61352" unicode="&#x2116;" horiz-adv-x="1068" 
d="M1004 279c0 -50.667 -14 -89.667 -42 -117s-68.333 -41 -121 -41c-52 0 -92.167 13.5 -120.5 40.5s-42.5 65.167 -42.5 114.5s14.333 87.666 43 114.999s68.667 41 120 41c50.667 0 90.5 -13.667 119.5 -41s43.5 -64.666 43.5 -111.999zM620 0h-132l-298 507v-507h-119
v696h132l298 -508v508h119v-696zM917 276c0 26.667 -7.33301 48.498 -22 65.498s-32.667 25.5 -54 25.5c-22 0 -40.167 -8.33301 -54.5 -25s-21.5 -38.667 -21.5 -66s7.16699 -49.166 21.5 -65.499s32.5 -24.5 54.5 -24.5c21.333 0 39.333 8.33301 54 25
s22 38.334 22 65.001zM1004 -0.00195312h-325v85h325v-85z" />
    <glyph glyph-name="trademark" unicode="&#x2122;" horiz-adv-x="990" 
d="M218 356v301h-115v55h299v-55h-114v-301h-70zM460 356v356h105l90 -251l89 251h103v-356h-63v293l-103 -293h-54l-103 293v-293h-64z" />
    <glyph glyph-name="Delta" unicode="&#x2206;" horiz-adv-x="682" 
d="M387 696l285 -696h-662l273 696h104zM147 91h383l-196 493z" />
    <glyph glyph-name="radical" unicode="&#x221a;" horiz-adv-x="600" 
d="M559 786l-212 -1000h-95l-156 322l-49 -23l-37 80l136 63l137 -289l173 847h103z" />
    <glyph glyph-name="infinity" unicode="&#x221e;" horiz-adv-x="796" 
d="M399 312c21.333 24.667 39.499 43.998 54.499 57.998s35.167 27.5 60.5 40.5s51 19.5 77 19.5c47.333 0 86 -15.833 116 -47.5s45 -72.834 45 -123.501c0 -51.333 -14.833 -93.166 -44.5 -125.499s-68.5 -48.5 -116.5 -48.5c-36.667 0 -70 9.83301 -100 29.5
s-60.667 46.834 -92 81.501c-4.66699 -4 -15.667 -14.333 -33 -31s-29.5 -27.5 -36.5 -32.5s-17.833 -12.333 -32.5 -22s-29 -16.167 -43 -19.5s-29.667 -5 -47 -5c-48 0 -87.167 15.833 -117.5 47.5s-45.5 72.834 -45.5 123.501s15 92 45 124s68.333 48 115 48
c38.667 0 72.334 -10 101.001 -30s60 -49 94 -87zM450.999 254.998c52.667 -55.333 99.666 -83.001 140.999 -83.001c23.333 0 42.333 7.83301 57 23.5s22 35.834 22 60.501c0 26 -7.5 47 -22.5 63s-34.5 24 -58.5 24c-37.333 0 -83.666 -29.333 -138.999 -88z
M345.998 254.997c-58.667 58 -106.332 86.999 -142.999 86.999c-22 0 -40.333 -8.16699 -55 -24.5s-22 -36.833 -22 -61.5c0 -25.333 7.33301 -45.5 22 -60.5s34.334 -22.5 59.001 -22.5c17.333 0 35.166 4.83301 53.499 14.5s33.166 19.334 44.499 29.001s25 22.5 41 38.5z
" />
    <glyph glyph-name="approxequal" unicode="&#x2248;" horiz-adv-x="600" 
d="M567 439c-5.33301 -52.667 -20.332 -93 -44.999 -121s-57.334 -42 -98.001 -42c-22 0 -66.667 10.667 -134 32c-4.66699 2 -14.334 5.5 -29.001 10.5l-36 12.5c-9.33301 3.33301 -19.833 6.5 -31.5 9.5s-21.167 4.5 -28.5 4.5c-17.333 0 -32.166 -6.5 -44.499 -19.5
s-19.833 -30.167 -22.5 -51.5h-65c4.66699 46.667 18.667 85.667 42 117s56.666 47 99.999 47c20 0 65 -11.333 135 -34c6.66699 -2 15.834 -5 27.501 -9l25 -8.5l19.5 -6.5c8 -2.66699 14.5 -4.5 19.5 -5.5s10.667 -1.83301 17 -2.5s12.5 -1 18.5 -1
c35.333 0 57 22.667 65 68h65zM567.001 240c-5.33301 -52.667 -20.332 -93 -44.999 -121s-57.334 -42 -98.001 -42c-22 0 -66.667 10.667 -134 32c-4.66699 2 -14.334 5.5 -29.001 10.5l-36 12.5c-9.33301 3.33301 -19.833 6.5 -31.5 9.5s-21.167 4.5 -28.5 4.5
c-17.333 0 -32.166 -6.5 -44.499 -19.5s-19.833 -30.167 -22.5 -51.5h-65c4.66699 46.667 18.667 85.667 42 117s56.666 47 99.999 47c20 0 65 -11.333 135 -34c6.66699 -2 15.834 -5 27.501 -9l25 -8.5l19.5 -6.5c8 -2.66699 14.5 -4.5 19.5 -5.5s10.667 -1.83301 17 -2.5
s12.5 -1 18.5 -1c35.333 0 57 22.667 65 68h65z" />
    <glyph glyph-name="notequal" unicode="&#x2260;" horiz-adv-x="600" 
d="M216 198l61 119h-236v95h285l77 152l84 -43l-56 -109h127v-95h-176l-61 -119h237v-96h-286l-77 -151l-84 43l56 108h-126v96h175z" />
    <glyph glyph-name="lessequal" unicode="&#x2264;" horiz-adv-x="600" 
d="M38 271v97l517 181v-101l-386 -128l386 -123v-101zM38 62h517v-96h-517v96z" />
    <glyph glyph-name="greaterequal" unicode="&#x2265;" horiz-adv-x="600" 
d="M562 271l-517 -175v101l386 123l-386 128v101l517 -181v-97zM562 62v-96h-517v96h517z" />
    <glyph glyph-name="hyphenminus" unicode="&#xe000;" horiz-adv-x="389" 
d="M341 328v-106h-293v106h293z" />
    <glyph glyph-name="nbspace" unicode="&#xe001;" horiz-adv-x="278" 
 />
    <glyph glyph-name=".null" horiz-adv-x="0" 
 />
    <glyph glyph-name="nonmarkingreturn" horiz-adv-x="333" 
 />
    </font>
</defs>
</svg>
